<svg width="24" height="24" viewBox="0 0 24 24" fill="none" xmlns="http://www.w3.org/2000/svg">
<g id="icone-github">
<path id="Vector" d="M21.4107 22.5249H3.28505C2.12343 22.5249 1.19568 21.6005 1.19568 20.4773V2.64383C1.19568 1.52058 2.12343 0.596191 3.28505 0.596191H21.4107C22.5723 0.596191 23.5 1.52058 23.5 2.64383V20.4773C23.5 21.6005 22.5723 22.5249 21.4107 22.5249Z" fill="white" stroke="white"/>
<path id="Vector_2" fill-rule="evenodd" clip-rule="evenodd" d="M12.3474 3.91797C8.05792 3.91797 4.57974 7.35317 4.57974 11.5917C4.57974 14.9813 6.80531 17.8573 9.89265 18.8721C10.2811 18.9426 10.4228 18.7057 10.4228 18.5023C10.4228 18.3201 10.416 17.8376 10.4121 17.1974C8.25115 17.6612 7.79526 16.1687 7.79526 16.1687C7.44229 15.2825 6.933 15.0465 6.933 15.0465C6.22755 14.5703 6.9864 14.5799 6.9864 14.5799C7.76564 14.6341 8.17589 15.3707 8.17589 15.3707C8.8692 16.5433 9.99412 16.2047 10.4369 16.0081C10.5073 15.5122 10.7083 15.1741 10.9302 14.9822C9.20517 14.7885 7.3918 14.1305 7.3918 11.1902C7.3918 10.3524 7.69427 9.6676 8.19143 9.13095C8.11132 8.93672 7.84478 8.15693 8.26717 7.10043C8.26717 7.10043 8.91969 6.89421 10.4034 7.88693C11.0234 7.71668 11.6876 7.6318 12.3483 7.62844C13.0081 7.6318 13.6728 7.71668 14.2933 7.88693C15.776 6.89421 16.4271 7.10043 16.4271 7.10043C16.8509 8.15693 16.5844 8.93672 16.5043 9.13095C17.0024 9.6676 17.3029 10.3524 17.3029 11.1902C17.3029 14.1377 15.4867 14.7866 13.7563 14.9765C14.035 15.2134 14.2836 15.6815 14.2836 16.3975C14.2836 17.4233 14.2739 18.2506 14.2739 18.5023C14.2739 18.7076 14.4137 18.9464 14.8079 18.8711C17.8924 17.8544 20.116 14.9803 20.116 11.5917C20.116 7.35317 16.6378 3.91797 12.3474 3.91797Z" fill="#202020"/>
</g>
</svg>
