<svg width="23" height="24" viewBox="0 0 23 24" fill="none" xmlns="http://www.w3.org/2000/svg">
<path d="M22.5 21.5917C22.5 22.1052 22.0813 22.5248 21.5625 22.5248H1.4375C0.918675 22.5248 0.5 22.1052 0.5 21.5917V1.52923C0.5 1.0158 0.918675 0.596191 1.4375 0.596191H21.5625C22.0813 0.596191 22.5 1.0158 22.5 1.52923V21.5917Z" fill="white" stroke="white"/>
<path d="M5.53131 17.5088V8.47754H7.40631V17.5088H5.53131Z" fill="#202020" stroke="#202020"/>
<path d="M11.7188 9.41057L12.7058 9.52399C12.779 9.20945 12.8706 8.99266 13.087 8.82902C13.3189 8.65369 13.7781 8.47754 14.7337 8.47754C15.3875 8.47754 15.857 8.60034 16.2007 8.79386C16.5396 8.98471 16.7899 9.26324 16.9775 9.63553C17.3688 10.4124 17.4688 11.5534 17.4688 12.9932V17.5088H15.5938V12.2766C15.5938 11.7145 15.4343 11.2113 15.0663 10.8505C14.6999 10.4914 14.1983 10.3436 13.6563 10.3436C13.1033 10.3436 12.5994 10.4942 12.235 10.8575C11.8703 11.2211 11.7188 11.7243 11.7188 12.2766V17.5088H9.84381V8.47754H11.7188V9.41057Z" fill="#202020" stroke="#202020"/>
<path d="M6.7674 5.82806C6.7674 6.34189 6.34913 6.76109 5.8299 6.76109C5.31066 6.76109 4.8924 6.34189 4.8924 5.82806C4.8924 5.31422 5.31066 4.89502 5.8299 4.89502C6.34913 4.89502 6.7674 5.31422 6.7674 5.82806Z" fill="#202020" stroke="#202020"/>
</svg>
