<svg width="22" height="26" viewBox="0 0 22 26" fill="none" xmlns="http://www.w3.org/2000/svg">
<path d="M6 18V25L11 22L16 25V21.5" stroke="black"/>
<path fill-rule="evenodd" clip-rule="evenodd" d="M11 20C16.5228 20 21 15.5228 21 10C21 9.17816 20.9009 8.37948 20.7139 7.61525C20.4146 7.75739 20.0949 7.86345 19.7603 7.92783C19.9171 8.5931 20 9.28687 20 10C20 14.9706 15.9706 19 11 19C6.02944 19 2 14.9706 2 10C2 5.02944 6.02944 1 11 1C12.6154 1 14.1313 1.42557 15.4419 2.1707C15.5963 1.87089 15.7875 1.59313 16.0096 1.34337C14.5365 0.489088 12.8254 0 11 0C5.47715 0 1 4.47715 1 10C1 15.5228 5.47715 20 11 20Z" fill="black"/>
<path d="M12.2613 8.26393L11.485 5.87476C11.3324 5.40491 10.6676 5.40488 10.515 5.87476L9.73867 8.26393H7.22655C6.73251 8.26393 6.52708 8.89613 6.92678 9.18653L8.95913 10.6631L8.18284 13.0523C8.03018 13.5221 8.56795 13.9129 8.96765 13.6225L11 12.1459L13.0323 13.6225C13.432 13.9129 13.9698 13.5222 13.8172 13.0523L13.0409 10.6631L15.0732 9.18653C15.4729 8.89614 15.2675 8.26393 14.7734 8.26393H12.2613Z" stroke="black"/>
<path d="M1.5 0L1.90514 1.09486L3 1.5L1.90514 1.90514L1.5 3L1.09486 1.90514L0 1.5L1.09486 1.09486L1.5 0Z" fill="black"/>
<path d="M3.5 18L3.90514 19.0949L5 19.5L3.90514 19.9051L3.5 21L3.09486 19.9051L2 19.5L3.09486 19.0949L3.5 18Z" fill="black"/>
<path d="M20.5 1L20.9051 2.09486L22 2.5L20.9051 2.90514L20.5 4L20.0949 2.90514L19 2.5L20.0949 2.09486L20.5 1Z" fill="black"/>
</svg>
