<svg width="25" height="24" viewBox="0 0 25 24" fill="none" xmlns="http://www.w3.org/2000/svg">
<path d="M7.44815 8.08252C8.00375 7.74299 8.375 7.13182 8.375 6.43304C8.375 5.36398 7.50608 4.5 6.4375 4.5C5.36892 4.5 4.5 5.36398 4.5 6.43304C4.5 7.13182 4.87125 7.74299 5.42685 8.08252H5.13892V8.58252V18.6138V19.1138H5.63892H8.51392H9.01392V18.6138V8.58252V8.08252H8.51392H7.44815ZM15.3413 8.08252C14.4494 8.08252 13.7983 8.21848 13.3264 8.48314V8.08252H12.8264H9.95142H9.45142V8.58252V18.6138V19.1138H9.95142H12.8264H13.3264V18.6138V12.8816C13.3264 12.5047 13.4276 12.2913 13.5486 12.1707C13.6698 12.0499 13.8847 11.9486 14.2639 11.9486C14.6319 11.9486 14.849 12.0472 14.9739 12.1697C15.0971 12.2904 15.2014 12.5037 15.2014 12.8816V18.6138V19.1138H15.7014H18.5764H19.0764V18.6138V13.5981C19.0764 12.1718 18.9892 10.805 18.4781 9.7906C18.2145 9.26724 17.8348 8.82925 17.299 8.5275C16.7678 8.22841 16.1178 8.08252 15.3413 8.08252ZM23.8043 22.5C23.8043 23.0519 23.3562 23.5 22.8043 23.5H1.80432C1.25246 23.5 0.804321 23.0519 0.804321 22.5V1.5C0.804321 0.948142 1.25246 0.5 1.80432 0.5H22.8043C23.3562 0.5 23.8043 0.948143 23.8043 1.5V22.5Z" fill="white" stroke="white"/>
</svg>
