<svg width="24" height="24" viewBox="0 0 24 24" fill="none" xmlns="http://www.w3.org/2000/svg">
<path d="M14.322 20.4443L14.3539 20.4382L14.3847 20.428C17.6646 19.3469 20.0362 16.288 20.0362 12.6737C20.0362 8.15326 16.3284 4.5 11.7676 4.5C7.20782 4.5 3.5 8.1533 3.5 12.6737C3.5 16.289 5.87363 19.35 9.15678 20.4291L9.18961 20.4399L9.22361 20.4461C9.52923 20.5016 9.83182 20.4479 10.0587 20.243C10.2717 20.0508 10.3431 19.7916 10.3431 19.5844C10.3431 19.4975 10.3416 19.3471 10.3397 19.1518L10.3396 19.1467C10.3374 18.916 10.3345 18.6188 10.3324 18.2764L10.3287 17.6616L9.72749 17.7906C8.83347 17.9824 8.34323 17.7857 8.07835 17.5896C8.30644 17.7021 8.54343 17.7623 8.77665 17.7829C9.32129 17.831 9.80421 17.6607 10.0601 17.5471L10.3133 17.4346L10.3522 17.1604C10.4086 16.7631 10.5618 16.5425 10.6774 16.4425L11.5421 15.695L10.4062 15.5674C9.57214 15.4737 8.80826 15.2746 8.25404 14.8138C7.72503 14.3739 7.31206 13.6309 7.31206 12.2723C7.31206 11.5663 7.56287 11.0014 7.97848 10.5528L8.1959 10.3181L8.07392 10.0223C8.03098 9.91823 7.84667 9.41269 8.04576 8.68306C8.06207 8.68592 8.07924 8.6892 8.09729 8.69296C8.36922 8.74954 8.84414 8.91518 9.54562 9.38453L9.73561 9.51165L9.95606 9.45112C10.5293 9.29369 11.1486 9.21384 11.7686 9.21048C12.3876 9.21384 13.0074 9.29369 13.5812 9.45114L13.8017 9.51164L13.9917 9.38444C14.6928 8.91508 15.1671 8.74948 15.4385 8.69293C15.4563 8.68921 15.4733 8.68595 15.4895 8.68311C15.6896 9.41281 15.5052 9.91832 15.4623 10.0223L15.3402 10.3184L15.5581 10.5531C15.9738 11.001 16.2232 11.5655 16.2232 12.2723C16.2232 13.6346 15.8094 14.3764 15.2801 14.8142C14.7251 15.2732 13.9596 15.4696 13.122 15.5615L11.9688 15.6881L12.8527 16.4395C12.9965 16.5617 13.2038 16.8768 13.2038 17.4795C13.2038 18.1635 13.1995 18.7591 13.1966 19.1547L13.1966 19.1574C13.1952 19.351 13.1941 19.499 13.1941 19.5844C13.1941 19.7891 13.263 20.051 13.4785 20.2453C13.7086 20.4528 14.0151 20.5029 14.322 20.4443ZM23.5 22.5C23.5 23.0519 23.0519 23.5 22.5 23.5H1.5C0.948143 23.5 0.5 23.0519 0.5 22.5V1.5C0.5 0.948142 0.948142 0.5 1.5 0.5H22.5C23.0519 0.5 23.5 0.948143 23.5 1.5V22.5Z" fill="white" stroke="white"/>
</svg>
