<svg width="41" height="34" viewBox="0 0 41 34" fill="none" xmlns="http://www.w3.org/2000/svg">
<path d="M31.1376 1.33419C30.4822 0.827565 29.5401 0.948209 29.0335 1.60366C28.5269 2.25911 28.6475 3.20117 29.303 3.7078L31.1376 1.33419ZM35.0165 6.2282L35.9338 5.04139L35.0165 6.2282ZM29.303 3.7078L34.0992 7.415L35.9338 5.04139L31.1376 1.33419L29.303 3.7078ZM34.2934 7.8106V19.1364H37.2934V7.8106H34.2934ZM34.0992 7.415C34.2217 7.50968 34.2934 7.65577 34.2934 7.8106H37.2934C37.2934 6.72682 36.7913 5.70418 35.9338 5.04139L34.0992 7.415Z" fill="#222222"/>
<path d="M10.1068 0.718838C10.7623 0.212208 11.7043 0.332853 12.211 0.988305C12.7176 1.64376 12.597 2.58581 11.9415 3.09244L10.1068 0.718838ZM6.22798 5.61284L5.31065 4.42604L6.22798 5.61284ZM11.9415 3.09244L7.14531 6.79964L5.31065 4.42604L10.1068 0.718838L11.9415 3.09244ZM6.95109 7.19524V19.1364H3.95109V7.19524H6.95109ZM7.14531 6.79964C7.02282 6.89433 6.95109 7.04042 6.95109 7.19524H3.95109C3.95109 6.11147 4.45316 5.08883 5.31065 4.42604L7.14531 6.79964Z" fill="#222222"/>
<path d="M16.3357 25.2903C16.3357 29.2112 13.1347 32.4057 9.16646 32.4057C5.19817 32.4057 1.99722 29.2112 1.99722 25.2903C1.99722 21.3694 5.19817 18.1749 9.16646 18.1749C13.1347 18.1749 16.3357 21.3694 16.3357 25.2903Z" stroke="#222222" stroke-width="3"/>
<path d="M38.628 25.2903C38.628 29.2112 35.427 32.4057 31.4588 32.4057C27.4905 32.4057 24.2895 29.2112 24.2895 25.2903C24.2895 21.3694 27.4905 18.1749 31.4588 18.1749C35.427 18.1749 38.628 21.3694 38.628 25.2903Z" stroke="#222222" stroke-width="3"/>
<path d="M16.5973 25.9055H24.028" stroke="#222222" stroke-width="3"/>
</svg>
