<svg width="525" height="523" viewBox="0 0 525 523" fill="none" xmlns="http://www.w3.org/2000/svg">
<circle cx="262.5" cy="270.5" r="179.5" fill="#C90076" fill-opacity="0.15"/>
<circle cx="262.5" cy="261.5" r="244" fill="#C90076" fill-opacity="0.05" stroke="#FFEBE7" stroke-width="35"/>
<rect x="2.5" y="86.5" width="155" height="350.285" rx="22.5" fill="white" stroke="white" stroke-width="5"/>
<path d="M5 407H155V414C155 425.046 146.046 434 135 434H25C13.9543 434 5 425.046 5 414V407Z" fill="#FFB8CB"/>
<rect x="74.9999" y="94" width="10" height="10" rx="5" fill="#FFB8CB"/>
<rect x="19" y="168" width="90" height="90" rx="8" fill="#FFB8CB"/>
<path d="M122 176C122 171.582 125.582 168 130 168H155V258H130C125.582 258 122 254.418 122 250V176Z" fill="#FFB8CB"/>
<rect x="19" y="146" width="40" height="10" rx="5" fill="#9B2242" fill-opacity="0.15"/>
<rect x="38.9999" y="112" width="22" height="4" rx="2" fill="#9B2242" fill-opacity="0.15"/>
<rect x="38.9999" y="120" width="14" height="4" rx="2" fill="#9B2242" fill-opacity="0.15"/>
<rect x="19" y="271" width="120" height="10" rx="5" fill="#9B2242" fill-opacity="0.15"/>
<rect x="19" y="308" width="120" height="10" rx="5" fill="#FFB8CB"/>
<rect x="19" y="323" width="81" height="10" rx="5" fill="#FFB8CB"/>
<rect x="19" y="338" width="59" height="10" rx="5" fill="#FFB8CB"/>
<rect x="17" y="380" width="127" height="17" rx="8.5" fill="#F0DEE3"/>
<rect x="19" y="110" width="16" height="16" rx="5" fill="#FFB8CB"/>
<path d="M33.134 417.5C33.5189 416.833 34.4811 416.833 34.866 417.5L37.4641 422C37.849 422.667 37.3679 423.5 36.5981 423.5H31.4019C30.6321 423.5 30.151 422.667 30.5359 422L33.134 417.5Z" fill="white"/>
<path d="M126.524 415.463C126.674 415.003 127.326 415.003 127.476 415.463L128.235 417.8C128.302 418.006 128.494 418.146 128.71 418.146H131.167C131.652 418.146 131.853 418.766 131.461 419.05L129.474 420.495C129.298 420.622 129.225 420.848 129.292 421.054L130.051 423.391C130.201 423.851 129.674 424.234 129.282 423.95L127.294 422.505C127.119 422.378 126.881 422.378 126.706 422.505L124.718 423.95C124.326 424.234 123.799 423.851 123.949 423.391L124.708 421.054C124.775 420.848 124.702 420.622 124.526 420.495L122.539 419.05C122.147 418.766 122.348 418.146 122.833 418.146H125.29C125.506 418.146 125.698 418.006 125.765 417.8L126.524 415.463Z" fill="white"/>
<path d="M78.75 416.835C78.75 416.283 79.1977 415.835 79.75 415.835L83.1727 415.835C83.5299 415.835 83.86 416.025 84.0387 416.335L85.75 419.299C86.0261 419.777 85.8623 420.389 85.384 420.665L80.25 423.629C79.5833 424.014 78.75 423.533 78.75 422.763L78.75 416.835Z" fill="white"/>
<path d="M23.9993 121C25.3582 118.735 28.6405 118.735 29.9993 121H23.9993Z" fill="white"/>
<circle cx="26.9993" cy="116" r="2" fill="white"/>
<rect x="129" y="113" width="10" height="2" rx="1" fill="#FFB8CB"/>
<rect x="131" y="116" width="8" height="2" rx="1" fill="#FFB8CB"/>
<rect x="133" y="119" width="6" height="2" rx="1" fill="#FFB8CB"/>
<path d="M93.0489 234.927C93.3483 234.006 94.6517 234.006 94.9511 234.927L96.0206 238.219C96.1545 238.631 96.5385 238.91 96.9717 238.91H100.433C101.402 238.91 101.804 240.149 101.021 240.719L98.2205 242.753C97.87 243.008 97.7234 243.459 97.8572 243.871L98.9268 247.163C99.2261 248.084 98.1717 248.85 97.388 248.281L94.5878 246.247C94.2373 245.992 93.7627 245.992 93.4122 246.247L90.612 248.281C89.8283 248.85 88.7739 248.084 89.0732 247.163L90.1428 243.871C90.2766 243.459 90.13 243.008 89.7795 242.753L86.9793 240.719C86.1956 240.149 86.5984 238.91 87.5671 238.91H91.0283C91.4615 238.91 91.8455 238.631 91.9794 238.219L93.0489 234.927Z" fill="white"/>
<rect x="169.5" y="130.5" width="353" height="250" rx="22.5" fill="white" stroke="white" stroke-width="5"/>
<rect x="187" y="184" width="314" height="141" rx="8" fill="#FFB8CB"/>
<rect x="187" y="148" width="20" height="20" rx="10" fill="#FFB8CB"/>
<rect x="297.999" y="155" width="21" height="6" rx="3" fill="#9B2242" fill-opacity="0.15"/>
<rect x="189" y="339" width="178" height="6" rx="3" fill="#9B2242" fill-opacity="0.15"/>
<rect x="189" y="349" width="121" height="6" rx="3" fill="#9B2242" fill-opacity="0.15"/>
<rect x="322.999" y="155" width="21" height="6" rx="3" fill="#9B2242" fill-opacity="0.15"/>
<rect x="347.999" y="155" width="21" height="6" rx="3" fill="#9B2242" fill-opacity="0.15"/>
<rect x="372.999" y="155" width="21" height="6" rx="3" fill="#9B2242" fill-opacity="0.15"/>
<rect x="207" y="233" width="120" height="10" rx="5" fill="white"/>
<rect x="207" y="248" width="81" height="10" rx="5" fill="white"/>
<rect x="207" y="263" width="59" height="10" rx="5" fill="white"/>
<rect x="484.999" y="150" width="16" height="16" rx="5" fill="#FFB8CB"/>
<path d="M489.999 161C491.358 158.735 494.64 158.735 495.999 161H489.999Z" fill="white"/>
<circle cx="492.999" cy="156" r="2" fill="white"/>
<rect x="368" y="214" width="103" height="81" rx="6" fill="white"/>
</svg>
