<svg width="384" height="36" viewBox="0 0 384 36" fill="none" xmlns="http://www.w3.org/2000/svg">
<path d="M20.848 35.6494L33.0605 0.335785H47.7874L60 35.6494H47.8901L40.3983 11.3588L32.9579 35.6494H20.848Z" fill="url(#paint0_linear_238_236)"/>
<path d="M0.888123 35.6494L13.1007 0.335785H27.8276L40.0401 35.6494H27.9302L20.4385 11.3588L12.9981 35.6494H0.888123Z" fill="black"/>
<path d="M62 21.8028C62 18.9765 62.5179 16.4953 63.5538 14.3592C64.622 12.223 66.0625 10.5798 67.8753 9.42958C69.688 8.27934 71.7112 7.70422 73.9448 7.70422C75.8546 7.70422 77.5217 8.09859 78.946 8.88732C80.4027 9.67606 81.5195 10.7113 82.2964 11.993V8.09859H90.5994V35.6056H82.2964V31.7113C81.4871 32.993 80.3541 34.0282 78.8975 34.8169C77.4731 35.6056 75.8061 36 73.8962 36C71.695 36 69.688 35.4249 67.8753 34.2746C66.0625 33.0915 64.622 31.4319 63.5538 29.2958C62.5179 27.1268 62 24.6291 62 21.8028ZM82.2964 21.8521C82.2964 19.7488 81.7137 18.0892 80.5484 16.8732C79.4154 15.6573 78.0234 15.0493 76.3725 15.0493C74.7216 15.0493 73.3135 15.6573 72.1482 16.8732C71.0152 18.0563 70.4487 19.6995 70.4487 21.8028C70.4487 23.9061 71.0152 25.5822 72.1482 26.831C73.3135 28.0469 74.7216 28.6549 76.3725 28.6549C78.0234 28.6549 79.4154 28.0469 80.5484 26.831C81.7137 25.615 82.2964 23.9554 82.2964 21.8521Z" fill="#292929"/>
<path d="M104.909 12.6831C105.881 11.1714 107.094 9.98826 108.551 9.1338C110.008 8.24648 111.626 7.80282 113.407 7.80282V16.7254H111.125C109.053 16.7254 107.499 17.1854 106.463 18.1056C105.427 18.993 104.909 20.5704 104.909 22.838V35.6056H96.6063V8.09859H104.909V12.6831Z" fill="#292929"/>
<path d="M115.724 21.8521C115.724 18.993 116.291 16.4953 117.424 14.3592C118.589 12.223 120.192 10.5798 122.231 9.42958C124.303 8.27934 126.666 7.70422 129.32 7.70422C132.719 7.70422 135.551 8.60798 137.817 10.4155C140.116 12.223 141.621 14.77 142.333 18.0563H133.496C132.751 15.9531 131.311 14.9014 129.174 14.9014C127.653 14.9014 126.439 15.5094 125.533 16.7254C124.626 17.9085 124.173 19.6174 124.173 21.8521C124.173 24.0869 124.626 25.8122 125.533 27.0282C126.439 28.2113 127.653 28.8028 129.174 28.8028C131.311 28.8028 132.751 27.7512 133.496 25.6479H142.333C141.621 28.8685 140.116 31.3991 137.817 33.2394C135.519 35.0798 132.687 36 129.32 36C126.666 36 124.303 35.4249 122.231 34.2746C120.192 33.1244 118.589 31.4812 117.424 29.3451C116.291 27.2089 115.724 24.7113 115.724 21.8521Z" fill="#292929"/>
<path d="M159.108 36C156.453 36 154.058 35.4249 151.921 34.2746C149.817 33.1244 148.15 31.4812 146.92 29.3451C145.722 27.2089 145.124 24.7113 145.124 21.8521C145.124 19.0258 145.739 16.5446 146.969 14.4085C148.199 12.2394 149.882 10.5798 152.018 9.42958C154.155 8.27934 156.55 7.70422 159.205 7.70422C161.859 7.70422 164.255 8.27934 166.391 9.42958C168.527 10.5798 170.211 12.2394 171.441 14.4085C172.671 16.5446 173.286 19.0258 173.286 21.8521C173.286 24.6784 172.655 27.1761 171.392 29.3451C170.162 31.4812 168.463 33.1244 166.294 34.2746C164.157 35.4249 161.762 36 159.108 36ZM159.108 28.7042C160.694 28.7042 162.037 28.1127 163.138 26.9296C164.271 25.7465 164.837 24.054 164.837 21.8521C164.837 19.6502 164.287 17.9577 163.186 16.7746C162.118 15.5915 160.791 15 159.205 15C157.586 15 156.243 15.5915 155.175 16.7746C154.106 17.9249 153.572 19.6174 153.572 21.8521C153.572 24.054 154.09 25.7465 155.126 26.9296C156.194 28.1127 157.521 28.7042 159.108 28.7042Z" fill="#292929"/>
<path d="M188.713 36C186.35 36 184.246 35.5892 182.401 34.7676C180.556 33.946 179.099 32.8286 178.031 31.4155C176.963 29.9695 176.364 28.3592 176.234 26.5845H184.44C184.537 27.5376 184.974 28.3099 185.751 28.9014C186.528 29.493 187.483 29.7887 188.616 29.7887C189.652 29.7887 190.445 29.5915 190.995 29.1972C191.578 28.77 191.869 28.2277 191.869 27.5704C191.869 26.7817 191.465 26.2066 190.655 25.8451C189.846 25.4507 188.535 25.0235 186.722 24.5634C184.78 24.1033 183.162 23.6268 181.867 23.1338C180.572 22.608 179.455 21.8028 178.516 20.7183C177.578 19.6009 177.108 18.1056 177.108 16.2324C177.108 14.6549 177.529 13.2254 178.371 11.9437C179.245 10.6291 180.507 9.5939 182.158 8.83803C183.841 8.08216 185.832 7.70422 188.13 7.70422C191.529 7.70422 194.2 8.55868 196.142 10.2676C198.117 11.9765 199.25 14.2441 199.541 17.0704H191.869C191.74 16.1174 191.319 15.3615 190.607 14.8028C189.927 14.2441 189.021 13.9648 187.888 13.9648C186.917 13.9648 186.172 14.162 185.654 14.5563C185.136 14.9178 184.877 15.4272 184.877 16.0845C184.877 16.8732 185.282 17.4648 186.091 17.8592C186.933 18.2535 188.228 18.6479 189.976 19.0423C191.983 19.5681 193.617 20.0939 194.88 20.6197C196.142 21.1127 197.243 21.9343 198.181 23.0845C199.153 24.2019 199.654 25.7136 199.687 27.6197C199.687 29.23 199.234 30.6761 198.327 31.9577C197.453 33.2066 196.175 34.1925 194.491 34.9155C192.84 35.6385 190.914 36 188.713 36Z" fill="#292929"/>
<path d="M232.439 35.6056L225.35 22.5423H223.359V35.6056H215.056V1H228.992C231.678 1 233.961 1.47653 235.838 2.42958C237.748 3.38263 239.172 4.69718 240.111 6.37324C241.05 8.01643 241.519 9.85681 241.519 11.8944C241.519 14.1948 240.872 16.2488 239.577 18.0563C238.314 19.8638 236.437 21.1455 233.944 21.9014L241.81 35.6056H232.439ZM223.359 16.5775H228.506C230.028 16.5775 231.161 16.1995 231.905 15.4437C232.682 14.6878 233.07 13.6197 233.07 12.2394C233.07 10.9249 232.682 9.88967 231.905 9.1338C231.161 8.37793 230.028 8 228.506 8H223.359V16.5775Z" fill="#292929"/>
<path d="M245.08 21.8028C245.08 18.9765 245.598 16.4953 246.634 14.3592C247.702 12.223 249.143 10.5798 250.956 9.42958C252.768 8.27934 254.792 7.70422 257.025 7.70422C258.935 7.70422 260.602 8.09859 262.026 8.88732C263.483 9.67606 264.6 10.7113 265.377 11.993V8.09859H273.68V35.6056H265.377V31.7113C264.568 32.993 263.435 34.0282 261.978 34.8169C260.554 35.6056 258.886 36 256.977 36C254.775 36 252.768 35.4249 250.956 34.2746C249.143 33.0915 247.702 31.4319 246.634 29.2958C245.598 27.1268 245.08 24.6291 245.08 21.8028ZM265.377 21.8521C265.377 19.7488 264.794 18.0892 263.629 16.8732C262.496 15.6573 261.104 15.0493 259.453 15.0493C257.802 15.0493 256.394 15.6573 255.229 16.8732C254.096 18.0563 253.529 19.6995 253.529 21.8028C253.529 23.9061 254.096 25.5822 255.229 26.831C256.394 28.0469 257.802 28.6549 259.453 28.6549C261.104 28.6549 262.496 28.0469 263.629 26.831C264.794 25.615 265.377 23.9554 265.377 21.8521Z" fill="#292929"/>
<path d="M314.259 7.80282C317.625 7.80282 320.296 8.83803 322.27 10.9084C324.277 12.9789 325.281 15.8545 325.281 19.5352V35.6056H317.026V20.669C317.026 18.8944 316.557 17.5305 315.618 16.5775C314.712 15.5915 313.449 15.0986 311.831 15.0986C310.212 15.0986 308.934 15.5915 307.995 16.5775C307.088 17.5305 306.635 18.8944 306.635 20.669V35.6056H298.381V20.669C298.381 18.8944 297.911 17.5305 296.973 16.5775C296.066 15.5915 294.804 15.0986 293.185 15.0986C291.567 15.0986 290.288 15.5915 289.349 16.5775C288.443 17.5305 287.99 18.8944 287.99 20.669V35.6056H279.687V8.09859H287.99V11.5493C288.831 10.3991 289.932 9.49531 291.292 8.83803C292.651 8.14789 294.189 7.80282 295.904 7.80282C297.944 7.80282 299.757 8.24648 301.343 9.1338C302.961 10.0211 304.224 11.2864 305.13 12.9296C306.069 11.4178 307.347 10.1854 308.966 9.23239C310.584 8.27934 312.349 7.80282 314.259 7.80282Z" fill="#292929"/>
<path d="M343.421 36C340.767 36 338.371 35.4249 336.235 34.2746C334.131 33.1244 332.463 31.4812 331.233 29.3451C330.036 27.2089 329.437 24.7113 329.437 21.8521C329.437 19.0258 330.052 16.5446 331.282 14.4085C332.512 12.2394 334.195 10.5798 336.332 9.42958C338.468 8.27934 340.864 7.70422 343.518 7.70422C346.172 7.70422 348.568 8.27934 350.704 9.42958C352.841 10.5798 354.524 12.2394 355.754 14.4085C356.984 16.5446 357.599 19.0258 357.599 21.8521C357.599 24.6784 356.968 27.1761 355.706 29.3451C354.475 31.4812 352.776 33.1244 350.607 34.2746C348.471 35.4249 346.075 36 343.421 36ZM343.421 28.7042C345.007 28.7042 346.35 28.1127 347.451 26.9296C348.584 25.7465 349.151 24.054 349.151 21.8521C349.151 19.6502 348.6 17.9577 347.5 16.7746C346.431 15.5915 345.104 15 343.518 15C341.899 15 340.556 15.5915 339.488 16.7746C338.42 17.9249 337.886 19.6174 337.886 21.8521C337.886 24.054 338.403 25.7465 339.439 26.9296C340.508 28.1127 341.835 28.7042 343.421 28.7042Z" fill="#292929"/>
<path d="M373.026 36C370.663 36 368.559 35.5892 366.714 34.7676C364.869 33.946 363.412 32.8286 362.344 31.4155C361.276 29.9695 360.677 28.3592 360.548 26.5845H368.753C368.851 27.5376 369.288 28.3099 370.064 28.9014C370.841 29.493 371.796 29.7887 372.929 29.7887C373.965 29.7887 374.758 29.5915 375.308 29.1972C375.891 28.77 376.183 28.2277 376.183 27.5704C376.183 26.7817 375.778 26.2066 374.969 25.8451C374.159 25.4507 372.848 25.0235 371.036 24.5634C369.093 24.1033 367.475 23.6268 366.18 23.1338C364.885 22.608 363.768 21.8028 362.83 20.7183C361.891 19.6009 361.421 18.1056 361.421 16.2324C361.421 14.6549 361.842 13.2254 362.684 11.9437C363.558 10.6291 364.82 9.5939 366.471 8.83803C368.155 8.08216 370.145 7.70422 372.444 7.70422C375.843 7.70422 378.513 8.55868 380.455 10.2676C382.43 11.9765 383.563 14.2441 383.854 17.0704H376.183C376.053 16.1174 375.632 15.3615 374.92 14.8028C374.24 14.2441 373.334 13.9648 372.201 13.9648C371.23 13.9648 370.485 14.162 369.967 14.5563C369.449 14.9178 369.19 15.4272 369.19 16.0845C369.19 16.8732 369.595 17.4648 370.404 17.8592C371.246 18.2535 372.541 18.6479 374.289 19.0423C376.296 19.5681 377.931 20.0939 379.193 20.6197C380.455 21.1127 381.556 21.9343 382.495 23.0845C383.466 24.2019 383.968 25.7136 384 27.6197C384 29.23 383.547 30.6761 382.64 31.9577C381.766 33.2066 380.488 34.1925 378.805 34.9155C377.154 35.6385 375.228 36 373.026 36Z" fill="#292929"/>
<defs>
<linearGradient id="paint0_linear_238_236" x1="24.2234" y1="0.335784" x2="59.0266" y2="35.1471" gradientUnits="userSpaceOnUse">
<stop stop-color="#FC5F00"/>
<stop offset="1" stop-color="#C90076"/>
</linearGradient>
</defs>
</svg>
