<svg width="116" height="52" viewBox="0 0 116 52" fill="none" xmlns="http://www.w3.org/2000/svg">
<rect width="103" height="41" rx="20.5" fill="white"/>
<path d="M46.4941 17.5767L43.4346 26H42.1841L45.707 16.7578H46.5132L46.4941 17.5767ZM49.0586 26L45.9927 17.5767L45.9736 16.7578H46.7798L50.3154 26H49.0586ZM48.8999 22.5786V23.5815H43.7075V22.5786H48.8999ZM52.5498 20.5981V26H51.3755V19.1318H52.4863L52.5498 20.5981ZM52.2705 22.3057L51.7817 22.2866C51.786 21.8169 51.8558 21.3831 51.9912 20.9854C52.1266 20.5833 52.3171 20.2342 52.5625 19.938C52.8079 19.6418 53.0999 19.4132 53.4385 19.2524C53.7812 19.0874 54.16 19.0049 54.5747 19.0049C54.9132 19.0049 55.2179 19.0514 55.4888 19.1445C55.7596 19.2334 55.9902 19.3773 56.1807 19.5762C56.3753 19.7751 56.5234 20.0332 56.625 20.3506C56.7266 20.6637 56.7773 21.0467 56.7773 21.4995V26H55.5967V21.4868C55.5967 21.1271 55.5438 20.8394 55.438 20.6235C55.3322 20.4035 55.1777 20.2448 54.9746 20.1475C54.7715 20.0459 54.5218 19.9951 54.2256 19.9951C53.9336 19.9951 53.667 20.0565 53.4258 20.1792C53.1888 20.3019 52.9836 20.4712 52.8101 20.687C52.6408 20.9028 52.5075 21.1504 52.4102 21.4297C52.3171 21.7048 52.2705 21.9967 52.2705 22.3057ZM62.8901 24.667V16.25H64.0708V26H62.9917L62.8901 24.667ZM58.269 22.6421V22.5088C58.269 21.984 58.3325 21.508 58.4595 21.0806C58.5907 20.6489 58.7747 20.2786 59.0117 19.9697C59.2529 19.6608 59.5386 19.4238 59.8687 19.2588C60.203 19.0895 60.5754 19.0049 60.9858 19.0049C61.4175 19.0049 61.7941 19.0811 62.1157 19.2334C62.4416 19.3815 62.7166 19.5994 62.9409 19.8872C63.1694 20.1707 63.3493 20.5135 63.4805 20.9155C63.6117 21.3175 63.7026 21.7725 63.7534 22.2803V22.8643C63.7069 23.3678 63.6159 23.8206 63.4805 24.2227C63.3493 24.6247 63.1694 24.9674 62.9409 25.251C62.7166 25.5345 62.4416 25.7524 62.1157 25.9048C61.7899 26.0529 61.409 26.127 60.9731 26.127C60.5711 26.127 60.203 26.0402 59.8687 25.8667C59.5386 25.6932 59.2529 25.4499 59.0117 25.1367C58.7747 24.8236 58.5907 24.4554 58.4595 24.0322C58.3325 23.6048 58.269 23.1414 58.269 22.6421ZM59.4497 22.5088V22.6421C59.4497 22.9849 59.4836 23.3065 59.5513 23.6069C59.6232 23.9074 59.7332 24.1719 59.8813 24.4004C60.0295 24.6289 60.2178 24.8088 60.4463 24.9399C60.6748 25.0669 60.9478 25.1304 61.2651 25.1304C61.6545 25.1304 61.974 25.0479 62.2236 24.8828C62.4775 24.7178 62.6807 24.4998 62.833 24.229C62.9854 23.9582 63.1038 23.6641 63.1885 23.3467V21.8169C63.1377 21.5841 63.0636 21.3599 62.9663 21.144C62.8732 20.924 62.7505 20.7293 62.5981 20.5601C62.45 20.3866 62.266 20.249 62.0459 20.1475C61.8301 20.0459 61.5741 19.9951 61.2778 19.9951C60.9562 19.9951 60.679 20.0628 60.4463 20.1982C60.2178 20.3294 60.0295 20.5114 59.8813 20.7441C59.7332 20.9727 59.6232 21.2393 59.5513 21.5439C59.4836 21.8444 59.4497 22.166 59.4497 22.5088ZM67.0732 20.2109V26H65.8989V19.1318H67.0415L67.0732 20.2109ZM69.2188 19.0938L69.2124 20.1855C69.1151 20.1644 69.022 20.1517 68.9331 20.1475C68.8485 20.139 68.7511 20.1348 68.6411 20.1348C68.3703 20.1348 68.1312 20.1771 67.9238 20.2617C67.7165 20.3464 67.5409 20.4648 67.397 20.6172C67.2531 20.7695 67.1388 20.9515 67.0542 21.1631C66.9738 21.3704 66.9209 21.599 66.8955 21.8486L66.5654 22.0391C66.5654 21.6243 66.6056 21.235 66.686 20.8711C66.7707 20.5072 66.8997 20.1855 67.0732 19.9062C67.2467 19.6227 67.4668 19.4027 67.7334 19.2461C68.0042 19.0853 68.3258 19.0049 68.6982 19.0049C68.7829 19.0049 68.8802 19.0155 68.9902 19.0366C69.1003 19.0535 69.1764 19.0726 69.2188 19.0938ZM69.8662 22.6421V22.4961C69.8662 22.001 69.9382 21.5418 70.082 21.1187C70.2259 20.6912 70.4333 20.321 70.7041 20.0078C70.9749 19.6904 71.3029 19.445 71.688 19.2715C72.0731 19.0938 72.5047 19.0049 72.9829 19.0049C73.4653 19.0049 73.8991 19.0938 74.2842 19.2715C74.6735 19.445 75.0036 19.6904 75.2744 20.0078C75.5495 20.321 75.759 20.6912 75.9028 21.1187C76.0467 21.5418 76.1187 22.001 76.1187 22.4961V22.6421C76.1187 23.1372 76.0467 23.5964 75.9028 24.0195C75.759 24.4427 75.5495 24.813 75.2744 25.1304C75.0036 25.4435 74.6756 25.689 74.2905 25.8667C73.9097 26.0402 73.478 26.127 72.9956 26.127C72.5132 26.127 72.0794 26.0402 71.6943 25.8667C71.3092 25.689 70.9792 25.4435 70.7041 25.1304C70.4333 24.813 70.2259 24.4427 70.082 24.0195C69.9382 23.5964 69.8662 23.1372 69.8662 22.6421ZM71.0405 22.4961V22.6421C71.0405 22.9849 71.0807 23.3086 71.1611 23.6133C71.2415 23.9137 71.3621 24.1803 71.5229 24.4131C71.688 24.6458 71.8932 24.8299 72.1387 24.9653C72.3841 25.0965 72.6698 25.1621 72.9956 25.1621C73.3172 25.1621 73.5986 25.0965 73.8398 24.9653C74.0853 24.8299 74.2884 24.6458 74.4492 24.4131C74.61 24.1803 74.7306 23.9137 74.811 23.6133C74.8957 23.3086 74.938 22.9849 74.938 22.6421V22.4961C74.938 22.1576 74.8957 21.8381 74.811 21.5376C74.7306 21.2329 74.6079 20.9642 74.4429 20.7314C74.2821 20.4945 74.0789 20.3083 73.8335 20.1729C73.5923 20.0374 73.3088 19.9697 72.9829 19.9697C72.6613 19.9697 72.3778 20.0374 72.1323 20.1729C71.8911 20.3083 71.688 20.4945 71.5229 20.7314C71.3621 20.9642 71.2415 21.2329 71.1611 21.5376C71.0807 21.8381 71.0405 22.1576 71.0405 22.4961ZM78.8672 19.1318V26H77.6865V19.1318H78.8672ZM77.5977 17.3101C77.5977 17.1196 77.6548 16.9588 77.769 16.8276C77.8875 16.6965 78.061 16.6309 78.2896 16.6309C78.5138 16.6309 78.6852 16.6965 78.8037 16.8276C78.9264 16.9588 78.9878 17.1196 78.9878 17.3101C78.9878 17.492 78.9264 17.6486 78.8037 17.7798C78.6852 17.9067 78.5138 17.9702 78.2896 17.9702C78.061 17.9702 77.8875 17.9067 77.769 17.7798C77.6548 17.6486 77.5977 17.492 77.5977 17.3101ZM85.0815 24.667V16.25H86.2622V26H85.1831L85.0815 24.667ZM80.4604 22.6421V22.5088C80.4604 21.984 80.5239 21.508 80.6509 21.0806C80.7821 20.6489 80.9661 20.2786 81.2031 19.9697C81.4443 19.6608 81.73 19.4238 82.0601 19.2588C82.3944 19.0895 82.7668 19.0049 83.1772 19.0049C83.6089 19.0049 83.9855 19.0811 84.3071 19.2334C84.633 19.3815 84.908 19.5994 85.1323 19.8872C85.3608 20.1707 85.5407 20.5135 85.6719 20.9155C85.8031 21.3175 85.894 21.7725 85.9448 22.2803V22.8643C85.8983 23.3678 85.8073 23.8206 85.6719 24.2227C85.5407 24.6247 85.3608 24.9674 85.1323 25.251C84.908 25.5345 84.633 25.7524 84.3071 25.9048C83.9813 26.0529 83.6004 26.127 83.1646 26.127C82.7625 26.127 82.3944 26.0402 82.0601 25.8667C81.73 25.6932 81.4443 25.4499 81.2031 25.1367C80.9661 24.8236 80.7821 24.4554 80.6509 24.0322C80.5239 23.6048 80.4604 23.1414 80.4604 22.6421ZM81.6411 22.5088V22.6421C81.6411 22.9849 81.675 23.3065 81.7427 23.6069C81.8146 23.9074 81.9246 24.1719 82.0728 24.4004C82.2209 24.6289 82.4092 24.8088 82.6377 24.9399C82.8662 25.0669 83.1392 25.1304 83.4565 25.1304C83.8459 25.1304 84.1654 25.0479 84.415 24.8828C84.6689 24.7178 84.8721 24.4998 85.0244 24.229C85.1768 23.9582 85.2952 23.6641 85.3799 23.3467V21.8169C85.3291 21.5841 85.255 21.3599 85.1577 21.144C85.0646 20.924 84.9419 20.7293 84.7896 20.5601C84.6414 20.3866 84.4574 20.249 84.2373 20.1475C84.0215 20.0459 83.7655 19.9951 83.4692 19.9951C83.1476 19.9951 82.8704 20.0628 82.6377 20.1982C82.4092 20.3294 82.2209 20.5114 82.0728 20.7441C81.9246 20.9727 81.8146 21.2393 81.7427 21.5439C81.675 21.8444 81.6411 22.166 81.6411 22.5088Z" fill="black"/>
<path d="M13 10C13 8.34315 14.3431 7 16 7H26L30 11L34 15.0992V31C34 32.6569 32.6569 34 31 34H16C14.3431 34 13 32.6569 13 31V10Z" fill="#D8752D"/>
<path d="M26 7L30 11L34 15H26V7Z" fill="#FFA96B"/>
<rect x="8" y="25" width="17" height="7" rx="2" fill="#9C490D"/>
<path d="M11.3076 29.6606C11.3076 29.5565 11.3434 29.4694 11.415 29.3994C11.4883 29.3294 11.5851 29.2944 11.7056 29.2944C11.826 29.2944 11.922 29.3294 11.9937 29.3994C12.0669 29.4694 12.1035 29.5565 12.1035 29.6606C12.1035 29.7648 12.0669 29.8519 11.9937 29.9219C11.922 29.9919 11.826 30.0269 11.7056 30.0269C11.5851 30.0269 11.4883 29.9919 11.415 29.9219C11.3434 29.8519 11.3076 29.7648 11.3076 29.6606ZM14.1494 29.4043V28.2275C14.1494 28.1429 14.1356 28.0705 14.1079 28.0103C14.0802 27.9484 14.0371 27.9004 13.9785 27.8662C13.9215 27.832 13.8475 27.8149 13.7563 27.8149C13.6782 27.8149 13.6107 27.8288 13.5537 27.8564C13.4967 27.8825 13.4528 27.9207 13.4219 27.9712C13.391 28.02 13.3755 28.0778 13.3755 28.1445H12.6724C12.6724 28.0322 12.6984 27.9256 12.7505 27.8247C12.8026 27.7238 12.8783 27.6351 12.9775 27.5586C13.0768 27.4805 13.1948 27.4194 13.3315 27.3755C13.4699 27.3315 13.6245 27.3096 13.7954 27.3096C14.0005 27.3096 14.1828 27.3438 14.3423 27.4121C14.5018 27.4805 14.6271 27.583 14.7183 27.7197C14.811 27.8564 14.8574 28.0273 14.8574 28.2324V29.3628C14.8574 29.5076 14.8664 29.6265 14.8843 29.7192C14.9022 29.8104 14.9282 29.8901 14.9624 29.9585V30H14.252C14.2178 29.9284 14.1917 29.8389 14.1738 29.7314C14.1576 29.6224 14.1494 29.5133 14.1494 29.4043ZM14.2422 28.3911L14.2471 28.7891H13.854C13.7612 28.7891 13.6807 28.7996 13.6123 28.8208C13.5439 28.842 13.4878 28.8721 13.4438 28.9111C13.3999 28.9486 13.3674 28.9925 13.3462 29.043C13.3267 29.0934 13.3169 29.1488 13.3169 29.209C13.3169 29.2692 13.3307 29.3237 13.3584 29.3726C13.3861 29.4198 13.4259 29.4572 13.478 29.4849C13.5301 29.5109 13.5911 29.5239 13.6611 29.5239C13.7669 29.5239 13.8589 29.5028 13.937 29.4604C14.0151 29.4181 14.0754 29.366 14.1177 29.3042C14.1616 29.2424 14.1844 29.1838 14.186 29.1284L14.3716 29.4263C14.3455 29.493 14.3097 29.5622 14.2642 29.6338C14.2202 29.7054 14.1641 29.7729 14.0957 29.8364C14.0273 29.8983 13.9451 29.9495 13.8491 29.9902C13.7531 30.0293 13.6392 30.0488 13.5073 30.0488C13.3397 30.0488 13.1875 30.0155 13.0508 29.9487C12.9157 29.8804 12.8083 29.7868 12.7285 29.668C12.6504 29.5475 12.6113 29.4108 12.6113 29.2578C12.6113 29.1195 12.6374 28.9966 12.6895 28.8892C12.7415 28.7817 12.818 28.6914 12.9189 28.6182C13.0215 28.5433 13.1493 28.4871 13.3022 28.4497C13.4552 28.4106 13.6326 28.3911 13.8345 28.3911H14.2422ZM16.1025 27.8662V31.0156H15.3994V27.3584H16.0513L16.1025 27.8662ZM17.7749 28.6499V28.7012C17.7749 28.8932 17.7521 29.0715 17.7065 29.2358C17.6626 29.4002 17.5975 29.5435 17.5112 29.6655C17.425 29.786 17.3175 29.8804 17.189 29.9487C17.062 30.0155 16.9155 30.0488 16.7495 30.0488C16.5884 30.0488 16.4484 30.0163 16.3296 29.9512C16.2108 29.8861 16.1107 29.7949 16.0293 29.6777C15.9495 29.5589 15.8853 29.4214 15.8364 29.2651C15.7876 29.1089 15.7502 28.9412 15.7241 28.7622V28.6279C15.7502 28.4359 15.7876 28.2601 15.8364 28.1006C15.8853 27.9395 15.9495 27.8003 16.0293 27.6831C16.1107 27.5643 16.21 27.4723 16.3271 27.4072C16.446 27.3421 16.5851 27.3096 16.7446 27.3096C16.9123 27.3096 17.0596 27.3413 17.1865 27.4048C17.3151 27.4683 17.4225 27.5594 17.5088 27.6782C17.5967 27.797 17.6626 27.9386 17.7065 28.103C17.7521 28.2674 17.7749 28.4497 17.7749 28.6499ZM17.0693 28.7012V28.6499C17.0693 28.5376 17.0596 28.4342 17.04 28.3398C17.0221 28.2438 16.9928 28.16 16.9521 28.0884C16.9131 28.0168 16.861 27.9614 16.7959 27.9224C16.7324 27.8817 16.6551 27.8613 16.564 27.8613C16.4679 27.8613 16.3857 27.8768 16.3174 27.9077C16.2507 27.9386 16.1961 27.9834 16.1538 28.042C16.1115 28.1006 16.0798 28.1706 16.0586 28.252C16.0374 28.3333 16.0244 28.4253 16.0195 28.5278V28.8672C16.0277 28.9876 16.0505 29.0959 16.0879 29.1919C16.1253 29.2863 16.1831 29.3612 16.2612 29.4165C16.3394 29.4718 16.4419 29.4995 16.5688 29.4995C16.6616 29.4995 16.7397 29.4792 16.8032 29.4385C16.8667 29.3962 16.918 29.3384 16.957 29.2651C16.9977 29.1919 17.0262 29.1073 17.0425 29.0112C17.0604 28.9152 17.0693 28.8118 17.0693 28.7012ZM18.915 26.2476V30H18.2119V26.2476H18.915ZM20.5801 27.3584L19.4326 28.667L18.8174 29.2896L18.561 28.7817L19.0493 28.1616L19.7354 27.3584H20.5801ZM19.8501 30L19.0688 28.7793L19.5547 28.3545L20.6606 30H19.8501Z" fill="white"/>
<g filter="url(#filter0_d_509_188)">
<rect x="93" y="28" width="19" height="19" rx="4" fill="white"/>
</g>
<path d="M103.5 34C103.5 33.7239 103.276 33.5 103 33.5C102.724 33.5 102.5 33.7239 102.5 34H103.5ZM102.646 41.3536C102.842 41.5488 103.158 41.5488 103.354 41.3536L106.536 38.1716C106.731 37.9763 106.731 37.6597 106.536 37.4645C106.34 37.2692 106.024 37.2692 105.828 37.4645L103 40.2929L100.172 37.4645C99.9763 37.2692 99.6597 37.2692 99.4645 37.4645C99.2692 37.6597 99.2692 37.9763 99.4645 38.1716L102.646 41.3536ZM102.5 34V41H103.5V34H102.5Z" fill="#828282"/>
<path d="M100 43H106" stroke="#828282" stroke-linecap="round"/>
<defs>
<filter id="filter0_d_509_188" x="89" y="25" width="27" height="27" filterUnits="userSpaceOnUse" color-interpolation-filters="sRGB">
<feFlood flood-opacity="0" result="BackgroundImageFix"/>
<feColorMatrix in="SourceAlpha" type="matrix" values="0 0 0 0 0 0 0 0 0 0 0 0 0 0 0 0 0 0 127 0" result="hardAlpha"/>
<feOffset dy="1"/>
<feGaussianBlur stdDeviation="2"/>
<feComposite in2="hardAlpha" operator="out"/>
<feColorMatrix type="matrix" values="0 0 0 0 0 0 0 0 0 0 0 0 0 0 0 0 0 0 0.25 0"/>
<feBlend mode="normal" in2="BackgroundImageFix" result="effect1_dropShadow_509_188"/>
<feBlend mode="normal" in="SourceGraphic" in2="effect1_dropShadow_509_188" result="shape"/>
</filter>
</defs>
</svg>
