<svg width="26" height="27" viewBox="0 0 26 27" fill="none" xmlns="http://www.w3.org/2000/svg">
<path d="M5 3C5 1.34315 6.34315 0 8 0H18L22 4L26 8.09923V24C26 25.6569 24.6569 27 23 27H8C6.34315 27 5 25.6569 5 24V3Z" fill="#D8752D"/>
<path d="M18 0L22 4L26 8H18V0Z" fill="#FFA96B"/>
<rect y="18" width="17" height="7" rx="2" fill="#9C490D"/>
<path d="M3.30762 22.6606C3.30762 22.5565 3.34342 22.4694 3.41504 22.3994C3.48828 22.3294 3.58512 22.2944 3.70557 22.2944C3.82601 22.2944 3.92204 22.3294 3.99365 22.3994C4.06689 22.4694 4.10352 22.5565 4.10352 22.6606C4.10352 22.7648 4.06689 22.8519 3.99365 22.9219C3.92204 22.9919 3.82601 23.0269 3.70557 23.0269C3.58512 23.0269 3.48828 22.9919 3.41504 22.9219C3.34342 22.8519 3.30762 22.7648 3.30762 22.6606ZM6.14941 22.4043V21.2275C6.14941 21.1429 6.13558 21.0705 6.10791 21.0103C6.08024 20.9484 6.03711 20.9004 5.97852 20.8662C5.92155 20.832 5.84749 20.8149 5.75635 20.8149C5.67822 20.8149 5.61068 20.8288 5.55371 20.8564C5.49674 20.8825 5.4528 20.9207 5.42188 20.9712C5.39095 21.02 5.37549 21.0778 5.37549 21.1445H4.67236C4.67236 21.0322 4.6984 20.9256 4.75049 20.8247C4.80257 20.7238 4.87826 20.6351 4.97754 20.5586C5.07682 20.4805 5.19482 20.4194 5.33154 20.3755C5.46989 20.3315 5.62451 20.3096 5.79541 20.3096C6.00049 20.3096 6.18278 20.3438 6.34229 20.4121C6.50179 20.4805 6.62712 20.583 6.71826 20.7197C6.81104 20.8564 6.85742 21.0273 6.85742 21.2324V22.3628C6.85742 22.5076 6.86637 22.6265 6.88428 22.7192C6.90218 22.8104 6.92822 22.8901 6.9624 22.9585V23H6.25195C6.21777 22.9284 6.19173 22.8389 6.17383 22.7314C6.15755 22.6224 6.14941 22.5133 6.14941 22.4043ZM6.24219 21.3911L6.24707 21.7891H5.854C5.76123 21.7891 5.68066 21.7996 5.6123 21.8208C5.54395 21.842 5.48779 21.8721 5.44385 21.9111C5.3999 21.9486 5.36735 21.9925 5.34619 22.043C5.32666 22.0934 5.31689 22.1488 5.31689 22.209C5.31689 22.2692 5.33073 22.3237 5.3584 22.3726C5.38607 22.4198 5.42594 22.4572 5.47803 22.4849C5.53011 22.5109 5.59115 22.5239 5.66113 22.5239C5.76693 22.5239 5.85889 22.5028 5.93701 22.4604C6.01514 22.4181 6.07536 22.366 6.11768 22.3042C6.16162 22.2424 6.18441 22.1838 6.18604 22.1284L6.37158 22.4263C6.34554 22.493 6.30973 22.5622 6.26416 22.6338C6.22021 22.7054 6.16406 22.7729 6.0957 22.8364C6.02734 22.8983 5.94515 22.9495 5.84912 22.9902C5.75309 23.0293 5.63916 23.0488 5.50732 23.0488C5.33968 23.0488 5.1875 23.0155 5.05078 22.9487C4.91569 22.8804 4.80827 22.7868 4.72852 22.668C4.65039 22.5475 4.61133 22.4108 4.61133 22.2578C4.61133 22.1195 4.63737 21.9966 4.68945 21.8892C4.74154 21.7817 4.81803 21.6914 4.91895 21.6182C5.02148 21.5433 5.14925 21.4871 5.30225 21.4497C5.45524 21.4106 5.63265 21.3911 5.83447 21.3911H6.24219ZM8.10254 20.8662V24.0156H7.39941V20.3584H8.05127L8.10254 20.8662ZM9.7749 21.6499V21.7012C9.7749 21.8932 9.75212 22.0715 9.70654 22.2358C9.6626 22.4002 9.59749 22.5435 9.51123 22.6655C9.42497 22.786 9.31755 22.8804 9.18896 22.9487C9.06201 23.0155 8.91553 23.0488 8.74951 23.0488C8.58838 23.0488 8.4484 23.0163 8.32959 22.9512C8.21077 22.8861 8.11068 22.7949 8.0293 22.6777C7.94954 22.5589 7.88525 22.4214 7.83643 22.2651C7.7876 22.1089 7.75016 21.9412 7.72412 21.7622V21.6279C7.75016 21.4359 7.7876 21.2601 7.83643 21.1006C7.88525 20.9395 7.94954 20.8003 8.0293 20.6831C8.11068 20.5643 8.20996 20.4723 8.32715 20.4072C8.44596 20.3421 8.58512 20.3096 8.74463 20.3096C8.91227 20.3096 9.05957 20.3413 9.18652 20.4048C9.3151 20.4683 9.42253 20.5594 9.50879 20.6782C9.59668 20.797 9.6626 20.9386 9.70654 21.103C9.75212 21.2674 9.7749 21.4497 9.7749 21.6499ZM9.06934 21.7012V21.6499C9.06934 21.5376 9.05957 21.4342 9.04004 21.3398C9.02214 21.2438 8.99284 21.16 8.95215 21.0884C8.91309 21.0168 8.861 20.9614 8.7959 20.9224C8.73242 20.8817 8.65511 20.8613 8.56396 20.8613C8.46794 20.8613 8.38574 20.8768 8.31738 20.9077C8.25065 20.9386 8.19613 20.9834 8.15381 21.042C8.11149 21.1006 8.07975 21.1706 8.05859 21.252C8.03743 21.3333 8.02441 21.4253 8.01953 21.5278V21.8672C8.02767 21.9876 8.05046 22.0959 8.08789 22.1919C8.12533 22.2863 8.18311 22.3612 8.26123 22.4165C8.33936 22.4718 8.44189 22.4995 8.56885 22.4995C8.66162 22.4995 8.73975 22.4792 8.80322 22.4385C8.8667 22.3962 8.91797 22.3384 8.95703 22.2651C8.99772 22.1919 9.0262 22.1073 9.04248 22.0112C9.06038 21.9152 9.06934 21.8118 9.06934 21.7012ZM10.915 19.2476V23H10.2119V19.2476H10.915ZM12.5801 20.3584L11.4326 21.667L10.8174 22.2896L10.561 21.7817L11.0493 21.1616L11.7354 20.3584H12.5801ZM11.8501 23L11.0688 21.7793L11.5547 21.3545L12.6606 23H11.8501Z" fill="white"/>
</svg>
