<svg width="78" height="111" viewBox="0 0 78 111" fill="none" xmlns="http://www.w3.org/2000/svg">
<path d="M71.2458 77.6208C69.9966 85.7217 63.0701 90.8211 56.3153 89.7795C49.5605 88.738 44.4918 81.7889 45.7409 73.688C46.9901 65.5872 53.9166 60.4877 60.6714 61.5293C67.4262 62.5708 72.4949 69.52 71.2458 77.6208Z" stroke="#004182" stroke-width="8"/>
<path d="M0.8153 46.7071C0.384991 43.6949 2.7223 41 5.76505 41H57.235C60.2777 41 62.615 43.6949 62.1847 46.7071L54.2265 102.414C53.5228 107.341 49.3036 111 44.327 111H18.673C13.6965 111 9.47724 107.341 8.77346 102.414L0.8153 46.7071Z" fill="#004182"/>
<path d="M22.6624 69.3889C23.1618 69.177 23.739 69.4018 23.9635 69.8956L24.4512 70.9685C24.6855 71.4841 24.4454 72.0911 23.9218 72.3069L17.368 75.008L23.9168 77.5815C24.4434 77.7884 24.6936 78.3905 24.4687 78.9096L23.9537 80.0989C23.7357 80.6024 23.1527 80.8362 22.6473 80.6229L14.3312 77.1139C13.9608 76.9576 13.72 76.5946 13.72 76.1926V73.8459C13.72 73.4446 13.9599 73.0822 14.3293 72.9254L22.6624 69.3889Z" fill="url(#paint0_linear_120_418)"/>
<path d="M32.5393 64.2824C32.6767 63.7596 33.2047 63.4406 33.7313 63.5622L35.5267 63.9765C36.076 64.1032 36.412 64.6587 36.2693 65.204L31.1355 84.8217C30.9987 85.3445 30.4713 85.664 29.9446 85.5432L28.1279 85.1267C27.5776 85.0005 27.2407 84.4439 27.3843 83.8978L32.5393 64.2824Z" fill="url(#paint1_linear_120_418)"/>
<path d="M39.6912 69.8956C39.9157 69.4018 40.4929 69.177 40.9922 69.3889L49.3254 72.9254C49.6948 73.0822 49.9347 73.4446 49.9347 73.8459V76.1926C49.9347 76.5946 49.6939 76.9576 49.3234 77.1139L41.0074 80.6229C40.5019 80.8362 39.919 80.6024 39.701 80.0989L39.1855 78.9086C38.9609 78.3899 39.2105 77.7882 39.7364 77.5809L46.2627 75.008L39.7313 72.3075C39.2084 72.0913 38.9689 71.4847 39.2031 70.9696L39.6912 69.8956Z" fill="url(#paint2_linear_120_418)"/>
<path d="M23 27.8955L26.9257 29.9267C28.2446 30.6091 29.793 30.6923 31.1773 30.1551V30.1551C34.9919 28.6748 35.6621 23.5627 32.358 21.1491L31.5 20.5224L30.9146 19.9611C26.6662 15.8881 26.8367 9.04509 31.2825 5.18863L31.5 5" stroke="#004182" stroke-opacity="0.2" stroke-width="10" stroke-linecap="round"/>
<circle cx="11" cy="31" r="3" fill="#004182" fill-opacity="0.2"/>
<circle cx="39.5" cy="36.5" r="2.5" fill="#004182" fill-opacity="0.2"/>
<circle cx="17.5" cy="16.5" r="1.5" fill="#004182" fill-opacity="0.2"/>
<circle cx="48" cy="24" r="4" fill="#004182" fill-opacity="0.2"/>
<defs>
<linearGradient id="paint0_linear_120_418" x1="13.72" y1="63.344" x2="55.891" y2="68.7635" gradientUnits="userSpaceOnUse">
<stop stop-color="#C269FE"/>
<stop offset="1" stop-color="#894DEB"/>
</linearGradient>
<linearGradient id="paint1_linear_120_418" x1="13.72" y1="63.344" x2="55.891" y2="68.7635" gradientUnits="userSpaceOnUse">
<stop stop-color="#C269FE"/>
<stop offset="1" stop-color="#894DEB"/>
</linearGradient>
<linearGradient id="paint2_linear_120_418" x1="13.72" y1="63.344" x2="55.891" y2="68.7635" gradientUnits="userSpaceOnUse">
<stop stop-color="#C269FE"/>
<stop offset="1" stop-color="#894DEB"/>
</linearGradient>
</defs>
</svg>
