<svg width="26" height="27" viewBox="0 0 26 27" fill="none" xmlns="http://www.w3.org/2000/svg">
<path d="M5 3C5 1.34315 6.34315 0 8 0H18L22 4L26 8.09923V24C26 25.6569 24.6569 27 23 27H8C6.34315 27 5 25.6569 5 24V3Z" fill="#0130D8"/>
<path d="M18 0L22 4L26 8H18V0Z" fill="#4C70EF"/>
<rect y="18" width="17" height="7" rx="2" fill="#0C288E"/>
<path d="M3.30762 22.6606C3.30762 22.5565 3.34342 22.4694 3.41504 22.3994C3.48828 22.3294 3.58512 22.2944 3.70557 22.2944C3.82601 22.2944 3.92204 22.3294 3.99365 22.3994C4.06689 22.4694 4.10352 22.5565 4.10352 22.6606C4.10352 22.7648 4.06689 22.8519 3.99365 22.9219C3.92204 22.9919 3.82601 23.0269 3.70557 23.0269C3.58512 23.0269 3.48828 22.9919 3.41504 22.9219C3.34342 22.8519 3.30762 22.7648 3.30762 22.6606ZM5.93945 23.0488C5.73438 23.0488 5.55046 23.0163 5.3877 22.9512C5.22493 22.8844 5.08659 22.7925 4.97266 22.6753C4.86035 22.5581 4.77409 22.4222 4.71387 22.2676C4.65365 22.1113 4.62354 21.9453 4.62354 21.7695V21.6719C4.62354 21.4717 4.65202 21.2886 4.70898 21.1226C4.76595 20.9565 4.84733 20.8125 4.95312 20.6904C5.06055 20.5684 5.19076 20.4748 5.34375 20.4097C5.49674 20.3429 5.66927 20.3096 5.86133 20.3096C6.0485 20.3096 6.21452 20.3405 6.35938 20.4023C6.50423 20.4642 6.62549 20.5521 6.72314 20.666C6.82243 20.7799 6.8973 20.9167 6.94775 21.0762C6.99821 21.234 7.02344 21.4098 7.02344 21.6035V21.8965H4.92383V21.4277H6.33252V21.374C6.33252 21.2764 6.31462 21.1893 6.27881 21.1128C6.24463 21.0347 6.19255 20.9728 6.12256 20.9272C6.05257 20.8817 5.96305 20.8589 5.854 20.8589C5.76123 20.8589 5.68148 20.8792 5.61475 20.9199C5.54801 20.9606 5.49349 21.0176 5.45117 21.0908C5.41048 21.1641 5.37956 21.2503 5.3584 21.3496C5.33887 21.4473 5.3291 21.5547 5.3291 21.6719V21.7695C5.3291 21.8753 5.34375 21.973 5.37305 22.0625C5.40397 22.152 5.4471 22.2293 5.50244 22.2944C5.55941 22.3595 5.62777 22.41 5.70752 22.4458C5.7889 22.4816 5.88086 22.4995 5.9834 22.4995C6.11035 22.4995 6.22835 22.4751 6.3374 22.4263C6.44808 22.3758 6.54329 22.3001 6.62305 22.1992L6.96484 22.5703C6.90951 22.6501 6.83382 22.7266 6.73779 22.7998C6.64339 22.873 6.52946 22.9333 6.396 22.9805C6.26253 23.026 6.11035 23.0488 5.93945 23.0488ZM7.99023 20.3584L8.42725 21.1616L8.87646 20.3584H9.62598L8.87891 21.6499L9.66016 23H8.9082L8.43213 22.1504L7.95605 23H7.2041L7.98535 21.6499L7.23828 20.3584H7.99023ZM11.1348 23.0488C10.9297 23.0488 10.7458 23.0163 10.583 22.9512C10.4202 22.8844 10.2819 22.7925 10.168 22.6753C10.0557 22.5581 9.9694 22.4222 9.90918 22.2676C9.84896 22.1113 9.81885 21.9453 9.81885 21.7695V21.6719C9.81885 21.4717 9.84733 21.2886 9.9043 21.1226C9.96126 20.9565 10.0426 20.8125 10.1484 20.6904C10.2559 20.5684 10.3861 20.4748 10.5391 20.4097C10.6921 20.3429 10.8646 20.3096 11.0566 20.3096C11.2438 20.3096 11.4098 20.3405 11.5547 20.4023C11.6995 20.4642 11.8208 20.5521 11.9185 20.666C12.0177 20.7799 12.0926 20.9167 12.1431 21.0762C12.1935 21.234 12.2188 21.4098 12.2188 21.6035V21.8965H10.1191V21.4277H11.5278V21.374C11.5278 21.2764 11.5099 21.1893 11.4741 21.1128C11.4399 21.0347 11.3879 20.9728 11.3179 20.9272C11.2479 20.8817 11.1584 20.8589 11.0493 20.8589C10.9565 20.8589 10.8768 20.8792 10.8101 20.9199C10.7433 20.9606 10.6888 21.0176 10.6465 21.0908C10.6058 21.1641 10.5749 21.2503 10.5537 21.3496C10.5342 21.4473 10.5244 21.5547 10.5244 21.6719V21.7695C10.5244 21.8753 10.5391 21.973 10.5684 22.0625C10.5993 22.152 10.6424 22.2293 10.6978 22.2944C10.7547 22.3595 10.8231 22.41 10.9028 22.4458C10.9842 22.4816 11.0762 22.4995 11.1787 22.4995C11.3057 22.4995 11.4237 22.4751 11.5327 22.4263C11.6434 22.3758 11.7386 22.3001 11.8184 22.1992L12.1602 22.5703C12.1048 22.6501 12.0291 22.7266 11.9331 22.7998C11.8387 22.873 11.7248 22.9333 11.5913 22.9805C11.4578 23.026 11.3057 23.0488 11.1348 23.0488Z" fill="white"/>
</svg>
