<svg width="631" height="577" viewBox="0 0 631 577" fill="none" xmlns="http://www.w3.org/2000/svg">
<g clip-path="url(#clip0_67_200)">
<path d="M284.981 350.913C283.772 350.215 283.772 349.083 284.981 348.385L374.489 296.708C376.315 295.654 379.444 296.278 379.752 297.759L382.491 310.941C382.597 311.452 382.998 311.928 383.629 312.292L412.786 329.126C413.995 329.824 413.995 330.956 412.786 331.654L334.394 376.913C333.185 377.611 331.224 377.611 330.015 376.913L284.981 350.913Z" stroke="#00004D" stroke-width="0.722232"/>
<path d="M282.502 339.538C281.12 338.74 281.12 337.447 282.502 336.649L372.009 284.972C374.097 283.767 377.672 284.481 378.024 286.173L380.764 299.354C380.858 299.809 381.214 300.232 381.775 300.555L410.932 317.389C412.314 318.187 412.314 319.481 410.932 320.278L332.54 365.538C331.158 366.336 328.918 366.336 327.536 365.538L282.502 339.538Z" fill="url(#paint0_linear_67_200)"/>
<rect width="62.5935" height="5.77786" rx="2.88893" transform="matrix(0.866025 -0.5 0.866025 0.5 302.517 338.575)" fill="#E3DFE6"/>
<rect width="62.5935" height="5.77786" rx="2.88893" transform="matrix(0.866025 -0.5 0.866025 0.5 325.868 352.057)" fill="#E3DFE6"/>
<rect width="43.3339" height="5.77786" rx="2.88893" transform="matrix(0.866025 -0.5 0.866025 0.5 314.193 345.316)" fill="#E3DFE6"/>
<rect x="0.999012" width="114.202" height="171.88" rx="5.19102" transform="matrix(0.866025 -0.5 0.866025 0.5 90.087 447.866)" stroke="black" stroke-width="1.15356"/>
<rect width="115.356" height="173.034" rx="5.7678" transform="matrix(0.866025 -0.5 0.866025 0.5 90.025 434.678)" fill="url(#paint1_linear_67_200)"/>
<rect width="62.2922" height="6.92136" rx="3.46068" transform="matrix(0.866025 -0.5 0.866025 0.5 125.989 428.91)" fill="#E3DFE6"/>
<rect width="62.2922" height="6.92136" rx="3.46068" transform="matrix(0.866025 -0.5 0.866025 0.5 150.964 447.944)" fill="#E3DFE6"/>
<rect width="76.1349" height="6.92136" rx="3.46068" transform="matrix(0.866025 -0.5 0.866025 0.5 166.949 457.172)" fill="#E3DFE6"/>
<rect width="2.30712" height="11.5356" rx="1.15356" transform="matrix(0.866025 -0.5 0.866025 0.5 127.987 464.67)" fill="#004182"/>
<rect width="2.30712" height="11.5356" rx="1.15356" transform="matrix(0.866025 -0.5 0.866025 0.5 186.929 495.24)" fill="#004182"/>
<rect width="76.1349" height="6.92136" rx="3.46068" transform="matrix(-0.866025 -0.5 0.866025 -0.5 191.924 500.431)" fill="url(#paint2_linear_67_200)"/>
<rect width="26.5319" height="6.92136" rx="3.46068" transform="matrix(0.866025 -0.5 0.866025 0.5 182.933 466.401)" fill="#E3DFE6"/>
<rect width="6.92136" height="6.92136" rx="3.46068" transform="matrix(0.866025 -0.5 0.866025 0.5 139.976 454.288)" fill="#E3DFE6"/>
<rect width="6.92136" height="6.92136" rx="3.46068" transform="matrix(0.866025 -0.5 0.866025 0.5 155.96 463.517)" fill="#E3DFE6"/>
<rect width="6.92136" height="6.92136" rx="3.46068" transform="matrix(0.866025 -0.5 0.866025 0.5 171.944 472.745)" fill="#E3DFE6"/>
<rect x="-0.598384" y="0.345477" width="219.724" height="136.809" rx="13.1281" transform="matrix(-0.866025 -0.5 -2.20305e-08 1 557.567 147.03)" stroke="black" stroke-width="1.38191"/>
<rect width="221.106" height="138.191" rx="13.8191" transform="matrix(-0.866025 -0.5 -2.20305e-08 1 543.483 158.614)" fill="url(#paint3_linear_67_200)"/>
<path d="M526.729 303.282L513.863 280.999L496.174 274.5L513.863 310.71L515.471 298.64L526.729 303.282Z" fill="#014896"/>
<path d="M475.268 273.571L488.133 266.143L505.823 280.07L488.133 295.854L486.525 281.927L475.268 273.571Z" fill="#014896" stroke="#E3DFE6" stroke-width="1.85694" stroke-linejoin="round"/>
<circle r="26.4722" transform="matrix(-0.866025 -0.5 -2.20305e-08 1 500.998 253.145)" fill="#014896" stroke="#E3DFE6" stroke-width="2.76382"/>
<circle r="15.3306" transform="matrix(-0.866025 -0.5 -2.20305e-08 1 500.998 253.145)" fill="#014896" stroke="#E3DFE6" stroke-width="2.76382"/>
<rect width="131.281" height="8.29146" rx="4.14573" transform="matrix(-0.866025 -0.5 -2.20305e-08 1 503.99 175.887)" fill="#E3DFE6"/>
<rect width="64.9497" height="8.29146" rx="4.14573" transform="matrix(-0.866025 -0.5 -2.20305e-08 1 447.742 213.89)" fill="#E3DFE6"/>
<rect width="131.281" height="8.29146" rx="4.14573" transform="matrix(-0.866025 -0.5 -2.20305e-08 1 503.99 197.998)" fill="#E3DFE6"/>
<path d="M404.5 360C430.897 344.322 436.38 341.671 455.219 330.701C461.837 326.848 461.773 317.286 455.129 313.478L396.099 279.652C389.404 275.816 389.392 266.164 396.077 262.311L410.5 254" stroke="#00004C" stroke-linecap="round" stroke-linejoin="round"/>
<rect x="-3.95625e-08" y="0.663749" width="37.9825" height="78.3224" rx="5.97374" transform="matrix(0.866025 0.5 -0.866025 0.5 536.074 355.297)" stroke="#014896" stroke-width="1.3275"/>
<rect x="-1.18688e-07" y="1.99125" width="35.3275" height="75.6674" rx="4.64624" transform="matrix(0.866025 0.5 -0.866025 0.5 535.979 347.996)" fill="url(#paint4_linear_67_200)" stroke="#00004D" stroke-width="3.98249"/>
<path d="M540.053 357.056C538.74 356.298 538.74 355.069 540.053 354.311L540.405 354.108L554.285 362.122L552.744 363.011C552.087 363.39 551.023 363.39 550.367 363.011L540.053 357.056Z" fill="#00004D"/>
<path d="M300 299L291.996 294.382C288.904 292.598 285.096 292.598 282.004 294.381L236.486 320.625C233.399 322.405 229.599 322.408 226.51 320.633L223.051 318.646C216.369 314.808 216.357 305.172 223.029 301.316L258.702 280.706C265.739 276.639 265.244 266.322 257.849 262.949L247 258" stroke="#00004D" stroke-linecap="round" stroke-linejoin="round"/>
<path d="M208.5 280V280C210.523 280.337 211.013 283.023 209.238 284.052L88.9371 353.835C82.2884 357.692 82.2954 367.296 88.9497 371.143L106 381M335 533.5L355 545.1C358.093 546.894 361.91 546.9 365.009 545.115L499.415 467.69C506.103 463.837 506.091 454.183 499.394 450.347L467.985 432.356C464.898 430.587 461.104 430.592 458.022 432.369L409.119 460.55C405.961 462.37 402.064 462.327 398.946 460.439L381.753 450.027C375.54 446.264 375.285 437.341 381.273 433.229L430.424 399.479C436.488 395.315 436.132 386.249 429.761 382.573L404.5 368" stroke="#00004C" stroke-linejoin="round"/>
<path d="M420.041 247.975C421.407 247.764 422.657 248.486 422.291 249.275L418.997 256.373C418.631 257.161 416.923 257.425 415.923 256.848L406.923 251.652C405.923 251.075 406.381 250.089 407.747 249.877L420.041 247.975Z" stroke="#00004C"/>
<path d="M419.883 243.634C421.704 243.352 423.371 244.314 422.883 245.366L419.589 252.464C419.1 253.516 416.824 253.868 415.49 253.098L406.49 247.902C405.157 247.132 405.767 245.818 407.589 245.536L419.883 243.634Z" fill="url(#paint5_linear_67_200)"/>
<rect x="-2.98023e-08" y="0.5" width="14" height="14" rx="2.5" transform="matrix(0.866025 0.5 -0.866025 0.5 111.923 382.25)" stroke="#00004C"/>
<rect x="-2.98023e-08" y="0.5" width="14" height="14" rx="2.5" transform="matrix(0.866025 0.5 -0.866025 0.5 398.423 357.25)" stroke="#00004C"/>
<rect width="15" height="15" rx="3" transform="matrix(0.866025 0.5 -0.866025 0.5 111.49 377)" fill="#014896"/>
<rect width="15" height="15" rx="3" transform="matrix(0.866025 0.5 -0.866025 0.5 397.99 352)" fill="#014896"/>
<path d="M208.553 280C205.205 281.933 199.776 281.933 196.428 280C193.08 278.067 193.08 274.933 196.428 273C199.776 271.067 205.205 271.067 208.553 273C211.901 274.933 211.901 278.067 208.553 280Z" stroke="#00004C"/>
<circle r="7.5" transform="matrix(0.866025 0.5 -0.866025 0.5 202.49 273.5)" fill="url(#paint6_linear_67_200)"/>
<path d="M334.053 534C330.705 535.933 325.276 535.933 321.928 534C318.58 532.067 318.58 528.933 321.928 527C325.276 525.067 330.705 525.067 334.053 527C337.401 528.933 337.401 532.067 334.053 534Z" stroke="#00004C"/>
<path d="M312.553 306C309.205 307.933 303.776 307.933 300.428 306C297.08 304.067 297.08 300.933 300.428 299C303.776 297.067 309.205 297.067 312.553 299C315.901 300.933 315.901 304.067 312.553 306Z" stroke="#00004C"/>
<circle r="7.5" transform="matrix(0.866025 0.5 -0.866025 0.5 327.99 527.5)" fill="url(#paint7_linear_67_200)"/>
<circle r="7.5" transform="matrix(0.866025 0.5 -0.866025 0.5 306.49 299.5)" fill="url(#paint8_linear_67_200)"/>
<path d="M234.85 253.275C234.484 252.486 235.734 251.764 237.1 251.975L249.394 253.877C250.76 254.089 251.218 255.075 250.218 255.652L241.218 260.848C240.218 261.425 238.51 261.161 238.144 260.373L234.85 253.275Z" stroke="#00004D"/>
<path d="M235.258 249.366C234.77 248.314 236.437 247.352 238.258 247.634L250.553 249.536C252.374 249.818 252.984 251.132 251.651 251.902L242.651 257.098C241.317 257.868 239.041 257.516 238.553 256.464L235.258 249.366Z" fill="url(#paint9_linear_67_200)"/>
<path d="M201.973 215.226L145.452 247.858L170.078 262.076C175.097 264.974 183.233 264.974 188.251 262.076L226.599 239.936C231.618 237.039 231.618 232.341 226.599 229.444L201.973 215.226Z" fill="url(#paint10_linear_67_200)"/>
<rect x="-0.493324" y="0.854461" width="283.681" height="169.38" rx="10.8232" transform="matrix(-0.866025 0.5 2.20305e-08 1 284.741 -2.75334)" stroke="#00004C" stroke-width="1.13928"/>
<g clip-path="url(#clip1_67_200)">
<rect width="284.821" height="165.959" rx="11.3928" transform="matrix(-0.866025 0.5 2.20305e-08 1 303 9.71472)" fill="url(#paint11_linear_67_200)"/>
<rect width="23.9597" height="23.9597" rx="3.19463" transform="matrix(-0.866025 0.5 -2.20305e-08 -1 282.834 131.633)" fill="#E3DFE6"/>
<rect width="23.9597" height="23.9597" rx="3.19463" transform="matrix(-0.866025 0.5 -2.20305e-08 -1 282.833 159.665)" fill="#E3DFE6"/>
<rect width="23.9597" height="23.9597" rx="3.19463" transform="matrix(-0.866025 0.5 -2.20305e-08 -1 282.833 102.882)" fill="#E3DFE6"/>
<rect width="23.9597" height="23.9597" rx="3.19463" transform="matrix(-0.866025 0.5 -2.20305e-08 -1 282.833 74.13)" fill="#E3DFE6"/>
<rect width="199.807" height="111.488" rx="3.19463" transform="matrix(-0.866025 0.5 2.20305e-08 1 248.213 68.4851)" fill="#E3DFE6"/>
<rect width="181.518" height="9.58389" rx="4.79194" transform="matrix(-0.866025 0.5 2.20305e-08 1 240.122 166.914)" fill="#014896"/>
<circle r="6.93525" transform="matrix(0.866025 -0.5 1.87871e-08 1 93.5529 255.798)" fill="url(#paint12_linear_67_200)"/>
<path d="M159.211 169.073C159.211 168.15 160.102 167.085 160.767 167.213L169.889 168.969C170.505 169.087 170.477 170.158 169.838 170.958L165.217 176.739L160.716 182.369C160.049 183.203 159.211 183.131 159.211 182.239L159.211 169.073Z" fill="url(#paint13_linear_67_200)"/>
</g>
<rect x="-1.50153" y="2.60072" width="281.353" height="162.491" rx="9.65901" transform="matrix(-0.866025 0.5 2.20305e-08 1 300.198 10.4655)" stroke="#014896" stroke-width="3.46762"/>
<path d="M392 368L341.999 397.091C338.907 398.891 335.088 398.901 331.986 397.117L302.053 379.906C298.93 378.11 295.083 378.133 291.981 379.966L286 383.5" stroke="#00004D"/>
<path d="M275.606 391.085C274.261 391.28 273.042 390.576 273.378 389.799L276.535 382.509C276.882 381.709 278.607 381.433 279.617 382.016L289.087 387.484C290.096 388.067 289.619 389.063 288.233 389.263L275.606 391.085Z" stroke="#00004D"/>
<path d="M275.755 388.428C273.961 388.687 272.336 387.749 272.784 386.713L275.941 379.423C276.403 378.357 278.703 377.989 280.05 378.766L289.52 384.234C290.866 385.011 290.229 386.339 288.382 386.606L275.755 388.428Z" fill="url(#paint14_linear_67_200)"/>
</g>
<defs>
<linearGradient id="paint0_linear_67_200" x1="284.076" y1="336" x2="390.004" y2="381.158" gradientUnits="userSpaceOnUse">
<stop stop-color="#00004C"/>
<stop offset="0.504365" stop-color="#004182"/>
</linearGradient>
<linearGradient id="paint1_linear_67_200" x1="4.57238" y1="0.778638" x2="153.692" y2="85.4106" gradientUnits="userSpaceOnUse">
<stop stop-color="#00004C"/>
<stop offset="0.504365" stop-color="#004182"/>
</linearGradient>
<linearGradient id="paint2_linear_67_200" x1="0" y1="0" x2="51.042" y2="44.6618" gradientUnits="userSpaceOnUse">
<stop stop-color="#C269FE"/>
<stop offset="1" stop-color="#894DEB"/>
</linearGradient>
<linearGradient id="paint3_linear_67_200" x1="8.76398" y1="0.621847" x2="141.109" y2="180.889" gradientUnits="userSpaceOnUse">
<stop stop-color="#00004C"/>
<stop offset="0.504365" stop-color="#004182"/>
</linearGradient>
<linearGradient id="paint4_linear_67_200" x1="1.55814" y1="0.358417" x2="58.6616" y2="24.3506" gradientUnits="userSpaceOnUse">
<stop stop-color="#00004C"/>
<stop offset="0.504365" stop-color="#004182"/>
</linearGradient>
<linearGradient id="paint5_linear_67_200" x1="415.321" y1="238" x2="424.01" y2="255.652" gradientUnits="userSpaceOnUse">
<stop stop-color="#C269FE"/>
<stop offset="1" stop-color="#894DEB"/>
</linearGradient>
<linearGradient id="paint6_linear_67_200" x1="0" y1="0" x2="17.6439" y2="1.40349" gradientUnits="userSpaceOnUse">
<stop stop-color="#C269FE"/>
<stop offset="1" stop-color="#894DEB"/>
</linearGradient>
<linearGradient id="paint7_linear_67_200" x1="0" y1="0" x2="17.6439" y2="1.40349" gradientUnits="userSpaceOnUse">
<stop stop-color="#C269FE"/>
<stop offset="1" stop-color="#894DEB"/>
</linearGradient>
<linearGradient id="paint8_linear_67_200" x1="0" y1="0" x2="17.6439" y2="1.40349" gradientUnits="userSpaceOnUse">
<stop stop-color="#C269FE"/>
<stop offset="1" stop-color="#894DEB"/>
</linearGradient>
<linearGradient id="paint9_linear_67_200" x1="225.5" y1="252" x2="237.441" y2="234.366" gradientUnits="userSpaceOnUse">
<stop stop-color="#C269FE"/>
<stop offset="1" stop-color="#894DEB"/>
</linearGradient>
<linearGradient id="paint10_linear_67_200" x1="199.884" y1="216.607" x2="204.507" y2="262.091" gradientUnits="userSpaceOnUse">
<stop stop-color="#00004C"/>
<stop offset="0.504365" stop-color="#004182"/>
</linearGradient>
<linearGradient id="paint11_linear_67_200" x1="11.2895" y1="0.746801" x2="166.581" y2="227.633" gradientUnits="userSpaceOnUse">
<stop stop-color="#00004C"/>
<stop offset="0.504365" stop-color="#004182"/>
</linearGradient>
<linearGradient id="paint12_linear_67_200" x1="0" y1="0" x2="16.3153" y2="1.29781" gradientUnits="userSpaceOnUse">
<stop stop-color="#C269FE"/>
<stop offset="1" stop-color="#894DEB"/>
</linearGradient>
<linearGradient id="paint13_linear_67_200" x1="159.687" y1="166.717" x2="172.518" y2="172.362" gradientUnits="userSpaceOnUse">
<stop stop-color="#00004C"/>
<stop offset="0.504365" stop-color="#004182"/>
</linearGradient>
<linearGradient id="paint14_linear_67_200" x1="264" y1="384.5" x2="272.739" y2="371.246" gradientUnits="userSpaceOnUse">
<stop stop-color="#C269FE"/>
<stop offset="1" stop-color="#894DEB"/>
</linearGradient>
<clipPath id="clip0_67_200">
<rect width="631" height="577" fill="white"/>
</clipPath>
<clipPath id="clip1_67_200">
<rect width="284.821" height="165.959" rx="11.3928" transform="matrix(-0.866025 0.5 2.20305e-08 1 303 9.71472)" fill="white"/>
</clipPath>
</defs>
</svg>
