<svg width="580" height="580" viewBox="0 0 580 580" fill="none" xmlns="http://www.w3.org/2000/svg">
<path d="M270.589 368.966L364.319 314.851C366.232 313.746 369.509 314.4 369.831 315.951L372.7 329.754C372.811 330.29 373.231 330.788 373.891 331.169L404.424 348.798C405.69 349.529 405.69 350.714 404.424 351.445L322.333 398.84C321.067 399.571 319.014 399.571 317.748 398.84L270.589 371.613C269.323 370.882 269.323 369.697 270.589 368.966Z" stroke="#00004D" stroke-width="0.756312"/>
<path d="M267.992 359.701C266.545 358.866 266.545 357.511 267.992 356.676L361.723 302.56C363.909 301.298 367.653 302.046 368.022 303.818L370.891 317.621C370.99 318.097 371.362 318.54 371.949 318.879L402.483 336.508C403.93 337.343 403.93 338.697 402.483 339.533L320.391 386.928C318.944 387.764 316.598 387.764 315.151 386.928L267.992 359.701Z" fill="url(#paint0_linear_67_200)"/>
<rect width="65.5471" height="6.0505" rx="3.02525" transform="matrix(0.866025 -0.5 0.866025 0.5 288.952 358.693)" fill="#E3DFE6"/>
<rect width="65.5471" height="6.0505" rx="3.02525" transform="matrix(0.866025 -0.5 0.866025 0.5 313.405 372.811)" fill="#E3DFE6"/>
<rect width="45.3787" height="6.0505" rx="3.02525" transform="matrix(0.866025 -0.5 0.866025 0.5 301.178 365.752)" fill="#E3DFE6"/>
<rect x="1.04615" width="119.591" height="179.991" rx="5.43597" transform="matrix(0.866025 -0.5 0.866025 0.5 66.4976 473.141)" stroke="black" stroke-width="1.20799"/>
<rect width="120.799" height="181.199" rx="6.03996" transform="matrix(0.866025 -0.5 0.866025 0.5 66.4327 459.331)" fill="url(#paint1_linear_67_200)"/>
<rect width="65.2316" height="7.24795" rx="3.62398" transform="matrix(0.866025 -0.5 0.866025 0.5 104.094 453.291)" fill="#E3DFE6"/>
<rect width="65.2316" height="7.24795" rx="3.62398" transform="matrix(0.866025 -0.5 0.866025 0.5 130.248 473.223)" fill="#E3DFE6"/>
<rect width="79.7275" height="7.24795" rx="3.62398" transform="matrix(0.866025 -0.5 0.866025 0.5 146.986 482.886)" fill="#E3DFE6"/>
<rect width="2.41598" height="12.0799" rx="1.20799" transform="matrix(0.866025 -0.5 0.866025 0.5 106.186 490.738)" fill="#004182"/>
<rect width="2.41598" height="12.0799" rx="1.20799" transform="matrix(0.866025 -0.5 0.866025 0.5 167.909 522.75)" fill="#004182"/>
<rect width="79.7275" height="7.24795" rx="3.62398" transform="matrix(-0.866025 -0.5 0.866025 -0.5 173.14 528.186)" fill="url(#paint2_linear_67_200)"/>
<rect width="27.7838" height="7.24795" rx="3.62398" transform="matrix(0.866025 -0.5 0.866025 0.5 163.725 492.55)" fill="#E3DFE6"/>
<rect width="7.24795" height="7.24795" rx="3.62398" transform="matrix(0.866025 -0.5 0.866025 0.5 118.74 479.866)" fill="#E3DFE6"/>
<rect width="7.24795" height="7.24795" rx="3.62398" transform="matrix(0.866025 -0.5 0.866025 0.5 135.479 489.531)" fill="#E3DFE6"/>
<rect width="7.24795" height="7.24795" rx="3.62398" transform="matrix(0.866025 -0.5 0.866025 0.5 152.217 499.194)" fill="#E3DFE6"/>
<rect x="-0.62662" y="0.361779" width="230.092" height="143.265" rx="13.7476" transform="matrix(-0.866025 -0.5 -2.20305e-08 1 556.037 158.109)" stroke="black" stroke-width="1.44712"/>
<rect width="231.539" height="144.712" rx="14.4712" transform="matrix(-0.866025 -0.5 -2.20305e-08 1 541.288 170.24)" fill="url(#paint3_linear_67_200)"/>
<path d="M523.743 321.735L510.271 298.4L491.746 291.594L510.271 329.513L511.955 316.873L523.743 321.735Z" fill="#014896"/>
<path d="M469.854 290.622L483.326 282.843L501.851 297.428L483.326 313.956L481.642 299.372L469.854 290.622Z" fill="#014896" stroke="#E3DFE6" stroke-width="1.94456" stroke-linejoin="round"/>
<circle r="27.7213" transform="matrix(-0.866025 -0.5 -2.20305e-08 1 496.798 269.232)" fill="#014896" stroke="#E3DFE6" stroke-width="2.89423"/>
<circle r="16.054" transform="matrix(-0.866025 -0.5 -2.20305e-08 1 496.798 269.231)" fill="#014896" stroke="#E3DFE6" stroke-width="2.89423"/>
<rect width="137.476" height="8.68271" rx="4.34135" transform="matrix(-0.866025 -0.5 -2.20305e-08 1 499.931 188.329)" fill="#E3DFE6"/>
<rect width="68.0145" height="8.68271" rx="4.34135" transform="matrix(-0.866025 -0.5 -2.20305e-08 1 441.029 228.124)" fill="#E3DFE6"/>
<rect width="137.476" height="8.68271" rx="4.34135" transform="matrix(-0.866025 -0.5 -2.20305e-08 1 499.931 211.482)" fill="#E3DFE6"/>
<path d="M395.747 381.129C423.389 364.711 429.131 361.935 448.859 350.447C455.789 346.412 455.722 336.399 448.765 332.412L386.949 296.99C379.938 292.972 379.926 282.865 386.927 278.831L402.03 270.127" stroke="#00004C" stroke-width="1.04719" stroke-linecap="round" stroke-linejoin="round"/>
<rect x="-4.14293e-08" y="0.695069" width="39.7748" height="82.0182" rx="6.25562" transform="matrix(0.866025 0.5 -0.866025 0.5 525.711 378.688)" stroke="#014896" stroke-width="1.39014"/>
<rect x="-1.24288e-07" y="2.08521" width="36.9945" height="79.2379" rx="4.86548" transform="matrix(0.866025 0.5 -0.866025 0.5 525.611 371.043)" fill="url(#paint4_linear_67_200)" stroke="#00004D" stroke-width="4.17041"/>
<path d="M529.877 380.531C528.503 379.737 528.503 378.45 529.877 377.656L530.246 377.444L544.781 385.835L543.167 386.767C542.48 387.164 541.365 387.164 540.678 386.767L529.877 380.531Z" fill="#00004D"/>
<path d="M286.316 317.25L277.934 312.415C274.696 310.547 270.708 310.546 267.47 312.413L219.805 339.896C216.572 341.76 212.593 341.763 209.358 339.904L205.736 337.824C198.738 333.804 198.726 323.713 205.713 319.676L243.069 298.093C250.439 293.835 249.92 283.03 242.176 279.498L230.815 274.316" stroke="#00004D" stroke-width="1.04719" stroke-linecap="round" stroke-linejoin="round"/>
<path d="M190.498 297.354V297.354C192.617 297.707 193.13 300.519 191.271 301.597L65.2934 374.673C58.331 378.712 58.3383 388.769 65.3066 392.797L83.1615 403.12M322.967 562.816L343.911 574.963C347.15 576.842 351.147 576.848 354.392 574.979L495.141 493.9C502.144 489.866 502.131 479.756 495.119 475.739L462.228 456.899C458.995 455.047 455.022 455.052 451.794 456.912L400.584 486.423C397.277 488.329 393.195 488.285 389.931 486.307L371.927 475.403C365.42 471.463 365.153 462.119 371.424 457.814L422.894 422.471C429.244 418.11 428.872 408.617 422.199 404.767L395.747 389.506" stroke="#00004C" stroke-width="1.04719" stroke-linejoin="round"/>
<path d="M414.377 265.179L410.928 272.612C410.545 273.437 408.756 273.714 407.709 273.11L398.285 267.668C397.237 267.064 397.716 266.031 399.147 265.81L412.021 263.818C413.452 263.597 414.761 264.353 414.377 265.179Z" stroke="#00004C" stroke-width="1.04719"/>
<path d="M411.855 259.272C413.763 258.977 415.508 259.984 414.997 261.086L411.547 268.519C411.036 269.62 408.652 269.989 407.256 269.183L397.831 263.741C396.435 262.935 397.074 261.559 398.981 261.264L411.855 259.272Z" fill="url(#paint5_linear_67_200)"/>
<rect x="-3.12086e-08" y="0.523593" width="14.6606" height="14.6606" rx="2.61797" transform="matrix(0.866025 0.5 -0.866025 0.5 89.3646 404.429)" stroke="#00004C" stroke-width="1.04719"/>
<rect x="-3.12086e-08" y="0.523593" width="14.6606" height="14.6606" rx="2.61797" transform="matrix(0.866025 0.5 -0.866025 0.5 389.384 378.249)" stroke="#00004C" stroke-width="1.04719"/>
<rect width="15.7078" height="15.7078" rx="3.14156" transform="matrix(0.866025 0.5 -0.866025 0.5 88.9111 398.931)" fill="#014896"/>
<rect width="15.7078" height="15.7078" rx="3.14156" transform="matrix(0.866025 0.5 -0.866025 0.5 388.93 372.751)" fill="#014896"/>
<path d="M190.553 297.354C187.047 299.378 181.363 299.378 177.857 297.354C174.351 295.33 174.351 292.048 177.857 290.024C181.363 287.999 187.047 287.999 190.553 290.024C194.059 292.048 194.059 295.33 190.553 297.354Z" stroke="#00004C" stroke-width="1.04719"/>
<circle r="7.8539" transform="matrix(0.866025 0.5 -0.866025 0.5 184.205 290.547)" fill="url(#paint6_linear_67_200)"/>
<path d="M321.975 563.339C318.469 565.364 312.785 565.364 309.279 563.339C305.773 561.315 305.773 558.033 309.279 556.009C312.785 553.985 318.469 553.985 321.975 556.009C325.481 558.033 325.481 561.315 321.975 563.339Z" stroke="#00004C" stroke-width="1.04719"/>
<path d="M299.461 324.581C295.955 326.605 290.27 326.605 286.764 324.581C283.258 322.557 283.258 319.275 286.764 317.251C290.27 315.226 295.955 315.226 299.461 317.251C302.967 319.275 302.967 322.557 299.461 324.581Z" stroke="#00004C" stroke-width="1.04719"/>
<circle r="7.8539" transform="matrix(0.866025 0.5 -0.866025 0.5 315.627 556.533)" fill="url(#paint7_linear_67_200)"/>
<circle r="7.8539" transform="matrix(0.866025 0.5 -0.866025 0.5 293.113 317.774)" fill="url(#paint8_linear_67_200)"/>
<path d="M220.448 268.007L233.322 269.999C234.752 270.22 235.232 271.252 234.184 271.857L224.76 277.298C223.712 277.903 221.924 277.626 221.541 276.8L218.091 269.367C217.708 268.541 219.017 267.786 220.448 268.007Z" stroke="#00004D" stroke-width="1.04719"/>
<path d="M218.519 265.274C218.008 264.173 219.753 263.166 221.661 263.461L234.535 265.452C236.442 265.747 237.081 267.124 235.685 267.93L226.26 273.371C224.864 274.177 222.48 273.809 221.969 272.707L218.519 265.274Z" fill="url(#paint9_linear_67_200)"/>
<path d="M183.663 229.523L124.475 263.696L150.263 278.585C155.519 281.619 164.039 281.619 169.294 278.585L209.452 255.4C214.707 252.366 214.707 247.446 209.452 244.412L183.663 229.523Z" fill="url(#paint10_linear_67_200)"/>
<rect x="-0.516602" y="0.894781" width="297.067" height="177.372" rx="11.3339" transform="matrix(-0.866025 0.5 2.20305e-08 1 270.337 1.2583)" stroke="#00004C" stroke-width="1.19304"/>
<g clip-path="url(#clip0_67_200)">
<rect width="298.26" height="173.79" rx="11.9304" transform="matrix(-0.866025 0.5 2.20305e-08 1 289.457 14.3147)" fill="url(#paint11_linear_67_200)"/>
<rect width="25.0903" height="25.0903" rx="3.34537" transform="matrix(-0.866025 0.5 -2.20305e-08 -1 268.34 141.986)" fill="#E3DFE6"/>
<rect width="25.0903" height="25.0903" rx="3.34537" transform="matrix(-0.866025 0.5 -2.20305e-08 -1 268.339 171.34)" fill="#E3DFE6"/>
<rect width="25.0903" height="25.0903" rx="3.34537" transform="matrix(-0.866025 0.5 -2.20305e-08 -1 268.339 111.878)" fill="#E3DFE6"/>
<rect width="25.0903" height="25.0903" rx="3.34537" transform="matrix(-0.866025 0.5 -2.20305e-08 -1 268.339 81.7695)" fill="#E3DFE6"/>
<rect width="209.236" height="116.749" rx="3.34537" transform="matrix(-0.866025 0.5 2.20305e-08 1 232.085 75.8583)" fill="#E3DFE6"/>
<rect width="190.083" height="10.0361" rx="5.01806" transform="matrix(-0.866025 0.5 2.20305e-08 1 223.613 178.931)" fill="#014896"/>
<circle r="7.2625" transform="matrix(0.866025 -0.5 1.87871e-08 1 70.127 272.01)" fill="url(#paint12_linear_67_200)"/>
<path d="M138.883 181.193C138.883 180.226 139.816 179.111 140.513 179.245L150.065 181.083C150.71 181.207 150.681 182.329 150.012 183.167L145.173 189.22L140.46 195.116C139.761 195.99 138.883 195.914 138.883 194.98L138.883 181.193Z" fill="url(#paint13_linear_67_200)"/>
</g>
<rect x="-1.57238" y="2.72344" width="294.629" height="170.159" rx="10.1148" transform="matrix(-0.866025 0.5 2.20305e-08 1 286.523 15.1009)" stroke="#014896" stroke-width="3.63125"/>
<path d="M382.657 389.506L330.297 419.97C327.058 421.855 323.059 421.865 319.811 419.997L288.466 401.974C285.196 400.093 281.167 400.117 277.919 402.036L271.655 405.738" stroke="#00004D" stroke-width="1.04719"/>
<path d="M258.438 412.334L261.744 404.7C262.107 403.862 263.913 403.573 264.971 404.184L274.888 409.91C275.945 410.52 275.445 411.563 273.994 411.772L260.771 413.681C259.362 413.884 258.086 413.148 258.438 412.334Z" stroke="#00004D" stroke-width="1.04719"/>
<path d="M260.927 410.899C259.048 411.17 257.346 410.187 257.816 409.103L261.122 401.469C261.605 400.352 264.014 399.967 265.424 400.781L275.341 406.506C276.751 407.32 276.084 408.711 274.149 408.99L260.927 410.899Z" fill="url(#paint14_linear_67_200)"/>
<defs>
<linearGradient id="paint0_linear_67_200" x1="269.641" y1="355.996" x2="380.567" y2="403.285" gradientUnits="userSpaceOnUse">
<stop stop-color="#00004C"/>
<stop offset="0.504365" stop-color="#004182"/>
</linearGradient>
<linearGradient id="paint1_linear_67_200" x1="4.78813" y1="0.815379" x2="160.945" y2="89.4408" gradientUnits="userSpaceOnUse">
<stop stop-color="#00004C"/>
<stop offset="0.504365" stop-color="#004182"/>
</linearGradient>
<linearGradient id="paint2_linear_67_200" x1="0" y1="0" x2="53.4505" y2="46.7693" gradientUnits="userSpaceOnUse">
<stop stop-color="#C269FE"/>
<stop offset="1" stop-color="#894DEB"/>
</linearGradient>
<linearGradient id="paint3_linear_67_200" x1="9.17753" y1="0.65119" x2="147.767" y2="189.424" gradientUnits="userSpaceOnUse">
<stop stop-color="#00004C"/>
<stop offset="0.504365" stop-color="#004182"/>
</linearGradient>
<linearGradient id="paint4_linear_67_200" x1="1.63166" y1="0.37533" x2="61.4296" y2="25.4997" gradientUnits="userSpaceOnUse">
<stop stop-color="#00004C"/>
<stop offset="0.504365" stop-color="#004182"/>
</linearGradient>
<linearGradient id="paint5_linear_67_200" x1="407.078" y1="253.372" x2="416.177" y2="271.857" gradientUnits="userSpaceOnUse">
<stop stop-color="#C269FE"/>
<stop offset="1" stop-color="#894DEB"/>
</linearGradient>
<linearGradient id="paint6_linear_67_200" x1="0" y1="0" x2="18.4765" y2="1.46972" gradientUnits="userSpaceOnUse">
<stop stop-color="#C269FE"/>
<stop offset="1" stop-color="#894DEB"/>
</linearGradient>
<linearGradient id="paint7_linear_67_200" x1="0" y1="0" x2="18.4765" y2="1.46972" gradientUnits="userSpaceOnUse">
<stop stop-color="#C269FE"/>
<stop offset="1" stop-color="#894DEB"/>
</linearGradient>
<linearGradient id="paint8_linear_67_200" x1="0" y1="0" x2="18.4765" y2="1.46972" gradientUnits="userSpaceOnUse">
<stop stop-color="#C269FE"/>
<stop offset="1" stop-color="#894DEB"/>
</linearGradient>
<linearGradient id="paint9_linear_67_200" x1="208.3" y1="268.033" x2="220.805" y2="249.566" gradientUnits="userSpaceOnUse">
<stop stop-color="#C269FE"/>
<stop offset="1" stop-color="#894DEB"/>
</linearGradient>
<linearGradient id="paint10_linear_67_200" x1="181.476" y1="230.969" x2="186.317" y2="278.6" gradientUnits="userSpaceOnUse">
<stop stop-color="#00004C"/>
<stop offset="0.504365" stop-color="#004182"/>
</linearGradient>
<linearGradient id="paint11_linear_67_200" x1="11.8222" y1="0.78204" x2="174.442" y2="238.374" gradientUnits="userSpaceOnUse">
<stop stop-color="#00004C"/>
<stop offset="0.504365" stop-color="#004182"/>
</linearGradient>
<linearGradient id="paint12_linear_67_200" x1="0" y1="0" x2="17.0852" y2="1.35905" gradientUnits="userSpaceOnUse">
<stop stop-color="#C269FE"/>
<stop offset="1" stop-color="#894DEB"/>
</linearGradient>
<linearGradient id="paint13_linear_67_200" x1="139.382" y1="178.725" x2="152.818" y2="184.637" gradientUnits="userSpaceOnUse">
<stop stop-color="#00004C"/>
<stop offset="0.504365" stop-color="#004182"/>
</linearGradient>
<linearGradient id="paint14_linear_67_200" x1="248.617" y1="406.785" x2="257.768" y2="392.905" gradientUnits="userSpaceOnUse">
<stop stop-color="#C269FE"/>
<stop offset="1" stop-color="#894DEB"/>
</linearGradient>
<clipPath id="clip0_67_200">
<rect width="298.26" height="173.79" rx="11.9304" transform="matrix(-0.866025 0.5 2.20305e-08 1 289.457 14.3147)" fill="white"/>
</clipPath>
</defs>
</svg>
