<svg width="560" height="350" viewBox="0 0 560 350" fill="none" xmlns="http://www.w3.org/2000/svg">
<g clip-path="url(#clip0_96_101)">
<rect width="33" height="59" rx="15" transform="matrix(0.866025 -0.5 0.866025 0.5 359.293 175.5)" fill="#00004D"/>
<rect x="0.866025" width="32" height="58" rx="14.5" transform="matrix(0.866025 -0.5 0.866025 0.5 359.41 183.933)" stroke="#00004D"/>
<rect width="6" height="15" rx="3" transform="matrix(0.866025 -0.5 0.866025 0.5 377.48 173)" fill="#014896"/>
<path d="M371.865 168.5L363.415 163.492C360.304 161.649 356.433 161.659 353.332 163.52V163.52C350.267 165.359 346.445 165.392 343.348 163.605L262.793 117.115C256.142 113.277 256.12 103.685 262.752 99.8159L277.865 91" stroke="#00004D" stroke-linecap="round"/>
<rect x="0.866025" width="219" height="79" rx="9.5" transform="matrix(0.866025 -0.5 0.866025 0.5 127.106 310.433)" stroke="#00004D"/>
<rect x="2.59808" width="217" height="77" rx="8.5" transform="matrix(0.866025 -0.5 0.866025 0.5 128.338 297.299)" fill="#00004D" stroke="#014896" stroke-width="3"/>
<rect width="10" height="10" rx="2" transform="matrix(0.866025 -0.5 0.866025 0.5 187.745 312.5)" fill="#014896"/>
<rect width="15" height="10" rx="2" transform="matrix(0.866025 -0.5 0.866025 0.5 168.693 312.5)" fill="#014896"/>
<rect width="10" height="10" rx="2" transform="matrix(0.866025 -0.5 0.866025 0.5 158.301 307.5)" fill="#014896"/>
<rect width="10" height="10" rx="2" transform="matrix(0.866025 -0.5 0.866025 0.5 139.248 296.5)" fill="#014896"/>
<rect width="10" height="10" rx="2" transform="matrix(0.866025 -0.5 0.866025 0.5 288.204 254.5)" fill="#014896"/>
<rect width="10" height="10" rx="2" transform="matrix(0.866025 -0.5 0.866025 0.5 273.482 252)" fill="#014896"/>
<rect width="10" height="10" rx="2" transform="matrix(0.866025 -0.5 0.866025 0.5 258.76 249.5)" fill="#014896"/>
<rect width="10" height="10" rx="2" transform="matrix(0.866025 -0.5 0.866025 0.5 244.903 246.5)" fill="#014896"/>
<rect width="10" height="10" rx="2" transform="matrix(0.866025 -0.5 0.866025 0.5 238.841 239)" fill="#014896"/>
<rect width="10" height="10" rx="2" transform="matrix(0.866025 -0.5 0.866025 0.5 237.975 283.5)" fill="#014896"/>
<rect width="10" height="10" rx="2" transform="matrix(0.866025 -0.5 0.866025 0.5 223.253 281)" fill="#014896"/>
<rect width="10" height="10" rx="2" transform="matrix(0.866025 -0.5 0.866025 0.5 208.53 278.5)" fill="#014896"/>
<rect width="10" height="10" rx="2" transform="matrix(0.866025 -0.5 0.866025 0.5 194.674 275.5)" fill="#014896"/>
<rect width="10" height="10" rx="2" transform="matrix(0.866025 -0.5 0.866025 0.5 188.612 268)" fill="#014896"/>
<rect width="22" height="10" rx="2" transform="matrix(0.866025 -0.5 0.866025 0.5 338.434 225.5)" fill="#014896"/>
<rect width="10" height="10" rx="2" transform="matrix(0.866025 -0.5 0.866025 0.5 323.711 223)" fill="#014896"/>
<rect width="10" height="10" rx="2" transform="matrix(0.866025 -0.5 0.866025 0.5 308.989 220.5)" fill="#014896"/>
<rect width="15" height="10" rx="2" transform="matrix(0.866025 -0.5 0.866025 0.5 295.133 217.5)" fill="#014896"/>
<rect width="10" height="10" rx="2" transform="matrix(0.866025 -0.5 0.866025 0.5 289.07 210)" fill="#014896"/>
<rect width="23" height="10" rx="2" transform="matrix(0.866025 -0.5 0.866025 0.5 298.597 204.5)" fill="#014896"/>
<rect width="10" height="10" rx="2" transform="matrix(0.866025 -0.5 0.866025 0.5 178.219 318)" fill="#014896"/>
<rect width="10" height="10" rx="2" transform="matrix(0.866025 -0.5 0.866025 0.5 278.678 260)" fill="#014896"/>
<rect width="10" height="10" rx="2" transform="matrix(0.866025 -0.5 0.866025 0.5 263.956 257.5)" fill="#014896"/>
<rect width="10" height="10" rx="2" transform="matrix(0.866025 -0.5 0.866025 0.5 249.233 255)" fill="#014896"/>
<rect width="10" height="10" rx="2" transform="matrix(0.866025 -0.5 0.866025 0.5 235.377 252)" fill="#014896"/>
<rect width="10" height="10" rx="2" transform="matrix(0.866025 -0.5 0.866025 0.5 229.315 244.5)" fill="#014896"/>
<rect width="10" height="10" rx="2" transform="matrix(0.866025 -0.5 0.866025 0.5 228.449 289)" fill="#014896"/>
<rect width="10" height="10" rx="2" transform="matrix(0.866025 -0.5 0.866025 0.5 213.726 286.5)" fill="#014896"/>
<rect width="10" height="10" rx="2" transform="matrix(0.866025 -0.5 0.866025 0.5 199.004 284)" fill="url(#paint0_linear_96_101)"/>
<rect width="10" height="10" rx="2" transform="matrix(0.866025 -0.5 0.866025 0.5 185.147 281)" fill="#014896"/>
<rect width="10" height="10" rx="2" transform="matrix(0.866025 -0.5 0.866025 0.5 179.085 273.5)" fill="#014896"/>
<rect width="10" height="10" rx="2" transform="matrix(0.866025 -0.5 0.866025 0.5 328.908 231)" fill="#014896"/>
<rect width="10" height="10" rx="2" transform="matrix(0.866025 -0.5 0.866025 0.5 314.185 228.5)" fill="#014896"/>
<rect width="10" height="10" rx="2" transform="matrix(0.866025 -0.5 0.866025 0.5 299.463 226)" fill="#014896"/>
<rect width="10" height="10" rx="2" transform="matrix(0.866025 -0.5 0.866025 0.5 285.606 223)" fill="#014896"/>
<rect width="10" height="10" rx="2" transform="matrix(0.866025 -0.5 0.866025 0.5 279.544 215.5)" fill="#014896"/>
<rect width="15" height="10" rx="2" transform="matrix(0.866025 -0.5 0.866025 0.5 188.612 324)" fill="#014896"/>
<rect width="10" height="10" rx="2" transform="matrix(0.866025 -0.5 0.866025 0.5 202.468 316)" fill="#014896"/>
<rect width="10" height="10" rx="2" transform="matrix(0.866025 -0.5 0.866025 0.5 212.86 310)" fill="#014896"/>
<rect width="10" height="10" rx="2" transform="matrix(0.866025 -0.5 0.866025 0.5 315.051 251)" fill="#014896"/>
<rect width="10" height="10" rx="2" transform="matrix(0.866025 -0.5 0.866025 0.5 325.444 245)" fill="#014896"/>
<rect width="10" height="10" rx="2" transform="matrix(0.866025 -0.5 0.866025 0.5 335.836 239)" fill="#014896"/>
<rect width="10" height="10" rx="2" transform="matrix(0.866025 -0.5 0.866025 0.5 346.228 233)" fill="#014896"/>
<rect width="13" height="10" rx="2" transform="matrix(0.866025 -0.5 0.866025 0.5 356.62 227)" fill="#014896"/>
<rect width="105" height="10" rx="2" transform="matrix(0.866025 -0.5 0.866025 0.5 222.387 304.5)" fill="#014896"/>
<rect width="10" height="10" rx="2" transform="matrix(0.866025 -0.5 0.866025 0.5 198.138 306.5)" fill="#014896"/>
<rect width="10" height="10" rx="2" transform="matrix(0.866025 -0.5 0.866025 0.5 183.415 304)" fill="#014896"/>
<rect width="10" height="10" rx="2" transform="matrix(0.866025 -0.5 0.866025 0.5 168.693 301.5)" fill="#014896"/>
<rect width="17" height="10" rx="2" transform="matrix(0.866025 -0.5 0.866025 0.5 148.774 302)" fill="#014896"/>
<rect width="10" height="10" rx="2" transform="matrix(0.866025 -0.5 0.866025 0.5 148.774 291)" fill="#014896"/>
<rect width="10" height="10" rx="2" transform="matrix(0.866025 -0.5 0.866025 0.5 298.597 248.5)" fill="#014896"/>
<rect width="10" height="10" rx="2" transform="matrix(0.866025 -0.5 0.866025 0.5 283.874 246)" fill="#014896"/>
<rect width="10" height="10" rx="2" transform="matrix(0.866025 -0.5 0.866025 0.5 269.152 243.5)" fill="#014896"/>
<rect width="10" height="10" rx="2" transform="matrix(0.866025 -0.5 0.866025 0.5 255.295 240.5)" fill="#014896"/>
<rect width="10" height="10" rx="2" transform="matrix(0.866025 -0.5 0.866025 0.5 249.233 233)" fill="#014896"/>
<rect width="10" height="10" rx="2" transform="matrix(0.866025 -0.5 0.866025 0.5 248.367 277.5)" fill="#014896"/>
<rect width="10" height="10" rx="2" transform="matrix(0.866025 -0.5 0.866025 0.5 233.645 275)" fill="#014896"/>
<rect width="10" height="10" rx="2" transform="matrix(0.866025 -0.5 0.866025 0.5 218.922 272.5)" fill="#014896"/>
<rect width="10" height="10" rx="2" transform="matrix(0.866025 -0.5 0.866025 0.5 205.066 269.5)" fill="#014896"/>
<rect width="10" height="10" rx="2" transform="matrix(0.866025 -0.5 0.866025 0.5 199.004 262)" fill="#014896"/>
<path d="M312.453 210.5C311.497 209.948 311.497 209.052 312.453 208.5L328.042 199.5C328.998 198.948 330.549 198.948 331.506 199.5L354.888 213C355.845 213.552 355.845 214.448 354.888 215L344.496 221C343.54 221.552 341.989 221.552 341.032 221L332.564 216.111C331.608 215.559 330.057 215.559 329.1 216.111L327.368 217.111C326.411 217.663 324.861 217.663 323.904 217.111L312.453 210.5Z" fill="url(#paint1_linear_96_101)"/>
<rect width="10" height="10" rx="2" transform="matrix(0.866025 -0.5 0.866025 0.5 207.664 301)" fill="#014896"/>
<rect width="10" height="10" rx="2" transform="matrix(0.866025 -0.5 0.866025 0.5 192.942 298.5)" fill="#014896"/>
<rect width="10" height="10" rx="2" transform="matrix(0.866025 -0.5 0.866025 0.5 178.219 296)" fill="url(#paint2_linear_96_101)"/>
<rect width="10" height="10" rx="2" transform="matrix(0.866025 -0.5 0.866025 0.5 164.363 293)" fill="#014896"/>
<rect width="10" height="10" rx="2" transform="matrix(0.866025 -0.5 0.866025 0.5 158.301 285.5)" fill="#014896"/>
<rect width="10" height="10" rx="2" transform="matrix(0.866025 -0.5 0.866025 0.5 308.123 243)" fill="#014896"/>
<rect width="10" height="10" rx="2" transform="matrix(0.866025 -0.5 0.866025 0.5 293.401 240.5)" fill="#014896"/>
<rect width="10" height="10" rx="2" transform="matrix(0.866025 -0.5 0.866025 0.5 278.678 238)" fill="#014896"/>
<rect width="10" height="10" rx="2" transform="matrix(0.866025 -0.5 0.866025 0.5 264.822 235)" fill="#014896"/>
<rect width="10" height="10" rx="2" transform="matrix(0.866025 -0.5 0.866025 0.5 258.76 227.5)" fill="#014896"/>
<rect width="10" height="10" rx="2" transform="matrix(0.866025 -0.5 0.866025 0.5 257.894 272)" fill="#014896"/>
<rect width="10" height="10" rx="2" transform="matrix(0.866025 -0.5 0.866025 0.5 243.171 269.5)" fill="#014896"/>
<rect width="10" height="10" rx="2" transform="matrix(0.866025 -0.5 0.866025 0.5 228.449 267)" fill="#014896"/>
<rect width="10" height="10" rx="2" transform="matrix(0.866025 -0.5 0.866025 0.5 214.592 264)" fill="#014896"/>
<rect width="10" height="10" rx="2" transform="matrix(0.866025 -0.5 0.866025 0.5 208.53 256.5)" fill="#014896"/>
<rect width="10" height="10" rx="2" transform="matrix(0.866025 -0.5 0.866025 0.5 218.056 295)" fill="#014896"/>
<rect width="10" height="10" rx="2" transform="matrix(0.866025 -0.5 0.866025 0.5 203.334 292.5)" fill="#014896"/>
<rect width="10" height="10" rx="2" transform="matrix(0.866025 -0.5 0.866025 0.5 188.612 290)" fill="#014896"/>
<rect width="10" height="10" rx="2" transform="matrix(0.866025 -0.5 0.866025 0.5 174.755 287)" fill="#014896"/>
<rect width="10" height="10" rx="2" transform="matrix(0.866025 -0.5 0.866025 0.5 168.693 279.5)" fill="#014896"/>
<rect width="10" height="10" rx="2" transform="matrix(0.866025 -0.5 0.866025 0.5 318.515 237)" fill="#014896"/>
<rect width="10" height="10" rx="2" transform="matrix(0.866025 -0.5 0.866025 0.5 303.793 234.5)" fill="#014896"/>
<rect width="10" height="10" rx="2" transform="matrix(0.866025 -0.5 0.866025 0.5 289.07 232)" fill="#014896"/>
<rect width="10" height="10" rx="2" transform="matrix(0.866025 -0.5 0.866025 0.5 275.214 229)" fill="#014896"/>
<rect width="10" height="10" rx="2" transform="matrix(0.866025 -0.5 0.866025 0.5 269.152 221.5)" fill="#014896"/>
<rect width="10" height="10" rx="2" transform="matrix(0.866025 -0.5 0.866025 0.5 268.286 266)" fill="#014896"/>
<rect width="10" height="10" rx="2" transform="matrix(0.866025 -0.5 0.866025 0.5 253.563 263.5)" fill="#014896"/>
<rect width="10" height="10" rx="2" transform="matrix(0.866025 -0.5 0.866025 0.5 238.841 261)" fill="#014896"/>
<rect width="10" height="10" rx="2" transform="matrix(0.866025 -0.5 0.866025 0.5 224.985 258)" fill="#014896"/>
<rect width="10" height="10" rx="2" transform="matrix(0.866025 -0.5 0.866025 0.5 218.922 250.5)" fill="#014896"/>
<rect width="10" height="10" rx="2" transform="matrix(0.866025 -0.5 0.866025 0.5 218.056 295)" fill="#014896"/>
<rect width="10" height="10" rx="2" transform="matrix(0.866025 -0.5 0.866025 0.5 203.334 292.5)" fill="#014896"/>
<rect width="10" height="10" rx="2" transform="matrix(0.866025 -0.5 0.866025 0.5 188.612 290)" fill="url(#paint3_linear_96_101)"/>
<rect width="10" height="10" rx="2" transform="matrix(0.866025 -0.5 0.866025 0.5 174.755 287)" fill="url(#paint4_linear_96_101)"/>
<rect width="10" height="10" rx="2" transform="matrix(0.866025 -0.5 0.866025 0.5 168.693 279.5)" fill="#014896"/>
<rect width="10" height="10" rx="2" transform="matrix(0.866025 -0.5 0.866025 0.5 318.515 237)" fill="#014896"/>
<rect width="10" height="10" rx="2" transform="matrix(0.866025 -0.5 0.866025 0.5 303.793 234.5)" fill="#014896"/>
<rect width="10" height="10" rx="2" transform="matrix(0.866025 -0.5 0.866025 0.5 289.07 232)" fill="#014896"/>
<rect width="10" height="10" rx="2" transform="matrix(0.866025 -0.5 0.866025 0.5 275.214 229)" fill="#014896"/>
<rect width="10" height="10" rx="2" transform="matrix(0.866025 -0.5 0.866025 0.5 269.152 221.5)" fill="#014896"/>
<rect width="10" height="10" rx="2" transform="matrix(0.866025 -0.5 0.866025 0.5 268.286 266)" fill="#014896"/>
<rect width="10" height="10" rx="2" transform="matrix(0.866025 -0.5 0.866025 0.5 253.563 263.5)" fill="#014896"/>
<rect width="10" height="10" rx="2" transform="matrix(0.866025 -0.5 0.866025 0.5 238.841 261)" fill="#014896"/>
<rect width="10" height="10" rx="2" transform="matrix(0.866025 -0.5 0.866025 0.5 224.985 258)" fill="#014896"/>
<rect width="10" height="10" rx="2" transform="matrix(0.866025 -0.5 0.866025 0.5 218.922 250.5)" fill="#014896"/>
<path d="M284.365 206.5L275.665 201.606C268.91 197.807 268.858 188.101 275.57 184.228L310.329 164.175C317.004 160.324 316.998 150.687 310.317 146.845L263.898 120.146C257.221 116.306 257.21 106.676 263.879 102.82L280.865 93" stroke="#00004D" stroke-linecap="round"/>
<rect x="0.433013" y="0.25" width="244" height="139" rx="9.5" transform="matrix(0.866025 -0.5 2.20305e-08 1 30.4234 119.717)" stroke="#00004D"/>
<path d="M116.365 209L164.863 181L195.174 198.5C199.957 201.262 199.957 205.739 195.174 208.5L163.997 226.5C159.214 229.262 151.459 229.262 146.676 226.5L116.365 209Z" fill="url(#paint5_linear_96_101)"/>
<rect x="1.29904" y="0.75" width="242" height="137" rx="8.5" transform="matrix(0.866025 -0.5 2.20305e-08 1 43.5394 129.15)" fill="url(#paint6_linear_96_101)" stroke="#014896" stroke-width="3"/>
<rect width="136.918" height="85.5736" rx="5" transform="matrix(0.866025 -0.5 5.96046e-08 1 58.3651 145.459)" fill="#5287C2"/>
<path d="M68.7405 235.044L76.7072 221.245L87.6614 217.221L76.7072 239.644L75.7113 232.169L68.7405 235.044Z" fill="#5287C2" stroke="#014896" stroke-width="2" stroke-linejoin="round"/>
<path d="M100.607 216.646L92.6405 212.046L81.6863 220.67L92.6405 230.444L93.6363 221.82L100.607 216.646Z" fill="#5287C2" stroke="#014896" stroke-width="1.85694" stroke-linejoin="round"/>
<circle r="15.8665" transform="matrix(0.866025 -0.5 5.96046e-08 1 84.6739 203.997)" fill="#5287C2" stroke="#014896" stroke-width="2.76382"/>
<circle r="8.96714" transform="matrix(0.866025 -0.5 5.96046e-08 1 84.6739 203.997)" fill="#5287C2" stroke="#014896" stroke-width="2.76382"/>
<rect width="81.2949" height="5.13442" rx="2.56721" transform="matrix(0.866025 -0.5 5.96046e-08 1 82.8212 156.156)" fill="#014896"/>
<rect width="40.2196" height="5.13442" rx="2.56721" transform="matrix(0.866025 -0.5 5.96046e-08 1 117.652 179.689)" fill="#014896"/>
<rect width="81.2949" height="5.13442" rx="2.56721" transform="matrix(0.866025 -0.5 5.96046e-08 1 82.8213 169.848)" fill="#014896"/>
<rect width="63.5085" height="85.5736" rx="5" transform="matrix(0.866025 -0.5 5.96046e-08 1 185.365 72.1576)" fill="#5287C2"/>
<rect width="43.4171" height="5.13442" rx="2.56721" transform="matrix(0.866025 -0.5 5.96046e-08 1 192.765 92.7017)" fill="#014896"/>
<rect width="15.4585" height="5.13442" rx="2.56721" transform="matrix(0.866025 -0.5 5.96046e-08 1 215.365 65.7292)" fill="#014896"/>
<rect width="43.4171" height="5.13442" rx="2.56721" transform="matrix(0.866025 -0.5 5.96046e-08 1 192.765 106.393)" fill="#014896"/>
<rect y="0.483596" width="27.6734" height="57.0643" rx="4.35236" transform="matrix(-0.866025 0.5 0.866025 0.5 475.322 131.045)" stroke="#00004D" stroke-width="0.967191"/>
<rect y="1.45079" width="25.739" height="55.1299" rx="3.38517" transform="matrix(-0.866025 0.5 0.866025 0.5 475.392 125.725)" fill="url(#paint7_linear_96_101)" stroke="#00004D" stroke-width="2.90157"/>
<g clip-path="url(#clip1_96_101)">
<rect width="21.5818" height="19.7447" rx="2" transform="matrix(0.866025 -0.5 0.866025 0.5 457.517 139.234)" fill="#014896"/>
<path d="M471.147 137.451C470.807 137.255 470.973 136.919 471.442 136.857L475.018 136.38C475.464 136.321 475.861 136.555 475.749 136.811L475.141 138.201L474.918 138.85C474.823 139.128 474.231 139.232 473.884 139.032L471.147 137.451Z" fill="white"/>
<path d="M474.365 147L489.365 138" stroke="white" stroke-linecap="round"/>
<rect width="3.23205" height="3.23205" rx="1" transform="matrix(0.866025 -0.5 0.866025 0.5 499.365 162.616)" fill="#FDFBFF"/>
<path d="M505.231 160.116C504.753 159.84 504.753 159.392 505.231 159.116L506.298 158.5C506.777 158.224 507.552 158.224 508.03 158.5L509.097 159.116C509.576 159.392 509.576 159.84 509.097 160.116L508.03 160.732C507.552 161.008 506.777 161.008 506.298 160.732L505.231 160.116Z" fill="#FDFBFF"/>
<rect width="3.23205" height="3.23205" rx="1" transform="matrix(0.866025 -0.5 0.866025 0.5 509.365 156.616)" fill="#FDFBFF"/>
<rect width="3.23205" height="3.23205" rx="1" transform="matrix(0.866025 -0.5 0.866025 0.5 514.365 153.616)" fill="#FDFBFF"/>
</g>
<path d="M472.068 132.287C473.024 131.735 473.024 130.84 472.068 130.287L471.811 130.139L461.699 135.978L462.821 136.626C463.299 136.902 464.075 136.902 464.553 136.626L472.068 132.287Z" fill="#00004D"/>
<rect x="0.617286" width="70.5653" height="106.204" rx="3.20751" transform="matrix(0.866025 -0.5 0.866025 0.5 359.216 283.788)" stroke="#00004D" stroke-width="0.71278"/>
<rect width="71.2781" height="106.917" rx="3.5639" transform="matrix(0.866025 -0.5 0.866025 0.5 359.178 275.639)" fill="url(#paint8_linear_96_101)"/>
<rect width="38.4901" height="4.27668" rx="2.13834" transform="matrix(0.866025 -0.5 0.866025 0.5 381.4 272.075)" fill="#E3DFE6"/>
<rect width="38.4901" height="4.27668" rx="2.13834" transform="matrix(0.866025 -0.5 0.866025 0.5 396.832 283.836)" fill="#E3DFE6"/>
<rect width="47.0435" height="4.27668" rx="2.13834" transform="matrix(0.866025 -0.5 0.866025 0.5 406.709 289.538)" fill="#E3DFE6"/>
<rect width="1.42556" height="7.1278" rx="0.71278" transform="matrix(0.866025 -0.5 0.866025 0.5 382.635 294.172)" fill="#004182"/>
<rect width="1.42556" height="7.1278" rx="0.71278" transform="matrix(0.866025 -0.5 0.866025 0.5 419.055 313.06)" fill="#004182"/>
<rect width="47.0435" height="4.27668" rx="2.13834" transform="matrix(-0.866025 -0.5 0.866025 -0.5 422.141 316.268)" fill="url(#paint9_linear_96_101)"/>
<rect width="16.394" height="4.27668" rx="2.13834" transform="matrix(0.866025 -0.5 0.866025 0.5 416.585 295.24)" fill="#E3DFE6"/>
<rect width="4.27668" height="4.27668" rx="2.13834" transform="matrix(0.866025 -0.5 0.866025 0.5 390.042 287.756)" fill="#E3DFE6"/>
<rect width="4.27668" height="4.27668" rx="2.13834" transform="matrix(0.866025 -0.5 0.866025 0.5 399.919 293.459)" fill="#E3DFE6"/>
<rect width="4.27668" height="4.27668" rx="2.13834" transform="matrix(0.866025 -0.5 0.866025 0.5 409.795 299.161)" fill="#E3DFE6"/>
<rect x="0.866025" width="99" height="99" rx="9.5" transform="matrix(0.866025 -0.5 0.866025 0.5 267.116 97.433)" stroke="#00004D"/>
<rect width="100" height="100" rx="10" transform="matrix(0.866025 -0.5 0.866025 0.5 266.365 87)" fill="url(#paint10_linear_96_101)"/>
<rect width="13" height="4" rx="1" transform="matrix(0.866025 -0.5 0.866025 0.5 353.365 126.5)" fill="white"/>
<rect width="13" height="4" rx="1" transform="matrix(0.866025 -0.5 0.866025 0.5 369.365 117.5)" fill="white"/>
<rect width="4" height="4" rx="1" transform="matrix(0.866025 -0.5 0.866025 0.5 421.365 88)" fill="url(#paint11_linear_96_101)"/>
</g>
<defs>
<linearGradient id="paint0_linear_96_101" x1="0" y1="0" x2="11.7626" y2="0.935663" gradientUnits="userSpaceOnUse">
<stop stop-color="#C269FE"/>
<stop offset="1" stop-color="#894DEB"/>
</linearGradient>
<linearGradient id="paint1_linear_96_101" x1="310.721" y1="209.5" x2="323.304" y2="190.035" gradientUnits="userSpaceOnUse">
<stop stop-color="#C269FE"/>
<stop offset="1" stop-color="#894DEB"/>
</linearGradient>
<linearGradient id="paint2_linear_96_101" x1="0" y1="0" x2="11.7626" y2="0.935663" gradientUnits="userSpaceOnUse">
<stop stop-color="#C269FE"/>
<stop offset="1" stop-color="#894DEB"/>
</linearGradient>
<linearGradient id="paint3_linear_96_101" x1="0" y1="0" x2="11.7626" y2="0.935663" gradientUnits="userSpaceOnUse">
<stop stop-color="#C269FE"/>
<stop offset="1" stop-color="#894DEB"/>
</linearGradient>
<linearGradient id="paint4_linear_96_101" x1="0" y1="0" x2="11.7626" y2="0.935663" gradientUnits="userSpaceOnUse">
<stop stop-color="#C269FE"/>
<stop offset="1" stop-color="#894DEB"/>
</linearGradient>
<linearGradient id="paint5_linear_96_101" x1="118.463" y1="207.992" x2="198.757" y2="212.004" gradientUnits="userSpaceOnUse">
<stop stop-color="#00004C"/>
<stop offset="0.504365" stop-color="#004182"/>
</linearGradient>
<linearGradient id="paint6_linear_96_101" x1="9.71109" y1="0.629988" x2="139.77" y2="194.391" gradientUnits="userSpaceOnUse">
<stop stop-color="#00004C"/>
<stop offset="0.504365" stop-color="#004182"/>
</linearGradient>
<linearGradient id="paint7_linear_96_101" x1="1.13523" y1="0.261137" x2="42.7398" y2="17.7414" gradientUnits="userSpaceOnUse">
<stop stop-color="#00004C"/>
<stop offset="0.504365" stop-color="#004182"/>
</linearGradient>
<linearGradient id="paint8_linear_96_101" x1="2.82526" y1="0.481118" x2="94.966" y2="52.7749" gradientUnits="userSpaceOnUse">
<stop stop-color="#00004C"/>
<stop offset="0.504365" stop-color="#004182"/>
</linearGradient>
<linearGradient id="paint9_linear_96_101" x1="0" y1="0" x2="31.5387" y2="27.5964" gradientUnits="userSpaceOnUse">
<stop stop-color="#C269FE"/>
<stop offset="1" stop-color="#894DEB"/>
</linearGradient>
<linearGradient id="paint10_linear_96_101" x1="3.96371" y1="0.449991" x2="103.056" y2="84.8085" gradientUnits="userSpaceOnUse">
<stop stop-color="#00004C"/>
<stop offset="0.504365" stop-color="#004182"/>
</linearGradient>
<linearGradient id="paint11_linear_96_101" x1="0" y1="0" x2="4.70504" y2="0.374265" gradientUnits="userSpaceOnUse">
<stop stop-color="#C269FE"/>
<stop offset="1" stop-color="#894DEB"/>
</linearGradient>
<clipPath id="clip0_96_101">
<rect width="560" height="350" fill="white"/>
</clipPath>
<clipPath id="clip1_96_101">
<rect width="22.5518" height="52.383" fill="white" transform="matrix(0.866025 -0.5 0.866025 0.5 456.852 139.178)"/>
</clipPath>
</defs>
</svg>
