<svg width="26" height="27" viewBox="0 0 26 27" fill="none" xmlns="http://www.w3.org/2000/svg">
<path d="M5 3C5 1.34315 6.34315 0 8 0H18L22 4L26 8.09923V24C26 25.6569 24.6569 27 23 27H8C6.34315 27 5 25.6569 5 24V3Z" fill="#9B0BB3"/>
<path d="M18 0L22 4L26 8H18V0Z" fill="#DA37F4"/>
<rect y="18" width="17" height="7" rx="2" fill="#680478"/>
<path d="M2.30762 22.6606C2.30762 22.5565 2.34342 22.4694 2.41504 22.3994C2.48828 22.3294 2.58512 22.2944 2.70557 22.2944C2.82601 22.2944 2.92204 22.3294 2.99365 22.3994C3.06689 22.4694 3.10352 22.5565 3.10352 22.6606C3.10352 22.7648 3.06689 22.8519 2.99365 22.9219C2.92204 22.9919 2.82601 23.0269 2.70557 23.0269C2.58512 23.0269 2.48828 22.9919 2.41504 22.9219C2.34342 22.8519 2.30762 22.7648 2.30762 22.6606ZM4.40967 19.25V23H3.70654V19.25H4.40967ZM4.30957 21.5864H4.1167C4.11833 21.4025 4.14274 21.2332 4.18994 21.0786C4.23714 20.9224 4.30469 20.7873 4.39258 20.6733C4.48047 20.5578 4.58545 20.4683 4.70752 20.4048C4.83122 20.3413 4.96794 20.3096 5.11768 20.3096C5.24788 20.3096 5.36589 20.3283 5.47168 20.3657C5.5791 20.4015 5.67106 20.4601 5.74756 20.5415C5.82568 20.6213 5.8859 20.7262 5.92822 20.8564C5.97054 20.9867 5.9917 21.1445 5.9917 21.3301V23H5.28369V21.3252C5.28369 21.208 5.2666 21.116 5.23242 21.0493C5.19987 20.981 5.15186 20.9329 5.08838 20.9053C5.02653 20.876 4.95003 20.8613 4.85889 20.8613C4.75798 20.8613 4.67171 20.88 4.6001 20.9175C4.53011 20.9549 4.47396 21.007 4.43164 21.0737C4.38932 21.1388 4.3584 21.2153 4.33887 21.3032C4.31934 21.3911 4.30957 21.4855 4.30957 21.5864ZM7.82031 20.3584V20.8564H6.28223V20.3584H7.82031ZM6.66309 19.7065H7.36621V22.2041C7.36621 22.2806 7.37598 22.3392 7.39551 22.3799C7.41667 22.4206 7.44759 22.4491 7.48828 22.4653C7.52897 22.48 7.58024 22.4873 7.64209 22.4873C7.68604 22.4873 7.7251 22.4857 7.75928 22.4824C7.79508 22.4775 7.8252 22.4727 7.84961 22.4678L7.85205 22.9854C7.79183 23.0049 7.72673 23.0203 7.65674 23.0317C7.58675 23.0431 7.50944 23.0488 7.4248 23.0488C7.27018 23.0488 7.13509 23.0236 7.01953 22.9731C6.9056 22.9211 6.81771 22.8381 6.75586 22.7241C6.69401 22.6102 6.66309 22.4604 6.66309 22.2749V19.7065ZM8.92383 20.9053V23H8.21826V20.3584H8.87988L8.92383 20.9053ZM8.82617 21.5864H8.63086C8.63086 21.4025 8.65283 21.2332 8.69678 21.0786C8.74235 20.9224 8.80827 20.7873 8.89453 20.6733C8.98242 20.5578 9.09066 20.4683 9.21924 20.4048C9.34782 20.3413 9.49674 20.3096 9.66602 20.3096C9.7832 20.3096 9.89062 20.3275 9.98828 20.3633C10.0859 20.3975 10.1698 20.452 10.2397 20.5269C10.3114 20.6001 10.3667 20.6961 10.4058 20.8149C10.4448 20.9321 10.4644 21.0729 10.4644 21.2373V23H9.76123V21.3154C9.76123 21.195 9.74495 21.1022 9.7124 21.0371C9.67985 20.972 9.63346 20.9264 9.57324 20.9004C9.51465 20.8743 9.44385 20.8613 9.36084 20.8613C9.26969 20.8613 9.18994 20.88 9.12158 20.9175C9.05485 20.9549 8.99951 21.007 8.95557 21.0737C8.91162 21.1388 8.87907 21.2153 8.85791 21.3032C8.83675 21.3911 8.82617 21.4855 8.82617 21.5864ZM10.3984 21.5059L10.147 21.5376C10.147 21.3651 10.1681 21.2048 10.2104 21.0566C10.2544 20.9085 10.3187 20.7783 10.4033 20.666C10.4896 20.5537 10.5962 20.4666 10.7231 20.4048C10.8501 20.3413 10.9966 20.3096 11.1626 20.3096C11.2896 20.3096 11.4051 20.3283 11.5093 20.3657C11.6134 20.4015 11.7021 20.4593 11.7754 20.5391C11.8503 20.6172 11.9072 20.7197 11.9463 20.8467C11.987 20.9736 12.0073 21.1291 12.0073 21.313V23H11.3018V21.313C11.3018 21.1909 11.2855 21.0981 11.2529 21.0347C11.222 20.9696 11.1764 20.9248 11.1162 20.9004C11.0576 20.8743 10.9876 20.8613 10.9062 20.8613C10.8216 20.8613 10.7476 20.8784 10.6841 20.9126C10.6206 20.9451 10.5677 20.9907 10.5254 21.0493C10.4831 21.1079 10.4513 21.1763 10.4302 21.2544C10.409 21.3309 10.3984 21.4147 10.3984 21.5059ZM13.2939 19.25V23H12.5884V19.25H13.2939Z" fill="white"/>
</svg>
