<svg width="36" height="36" viewBox="0 0 36 36" fill="none" xmlns="http://www.w3.org/2000/svg">
<path d="M35.5 33.75C35.5 34.7159 34.7159 35.5 33.75 35.5H2.25C1.28414 35.5 0.5 34.7159 0.5 33.75V2.25C0.5 1.28414 1.28414 0.5 2.25 0.5H33.75C34.7159 0.5 35.5 1.28414 35.5 2.25V33.75Z" fill="#004182" stroke="white"/>
<path d="M8.375 27.625V12.875H11.875V27.625H8.375Z" fill="white" stroke="white"/>
<path d="M18.625 14.625L19.612 14.7381C19.7317 14.2227 19.8954 13.8017 20.3141 13.4841C20.7479 13.155 21.5391 12.875 23.0614 12.875C24.1192 12.875 24.9049 13.0743 25.4956 13.408C26.0817 13.7391 26.5102 14.2217 26.8254 14.8494C27.4721 16.1371 27.625 17.9933 27.625 20.25V27.625H24.125V19.125C24.125 18.2954 23.8912 17.588 23.3846 17.09C22.8795 16.5933 22.1745 16.375 21.375 16.375C20.5581 16.375 19.8509 16.5976 19.3493 17.0993C18.8476 17.6009 18.625 18.3081 18.625 19.125V27.625H15.125V12.875H18.625V14.625Z" fill="white" stroke="white"/>
<path d="M10.875 9C10.875 9.9665 10.0915 10.75 9.125 10.75C8.1585 10.75 7.375 9.9665 7.375 9C7.375 8.0335 8.1585 7.25 9.125 7.25C10.0915 7.25 10.875 8.0335 10.875 9Z" fill="white" stroke="white"/>
</svg>
