<svg width="36" height="36" viewBox="0 0 36 36" fill="none" xmlns="http://www.w3.org/2000/svg">
<g id="icone-github">
<path id="Vector" d="M32 35.5H4C2.067 35.5 0.5 33.933 0.5 32V4C0.5 2.067 2.067 0.5 4 0.5H32C33.933 0.5 35.5 2.067 35.5 4V32C35.5 33.933 33.933 35.5 32 35.5Z" fill="black" stroke="white"/>
<path id="Vector_2" fill-rule="evenodd" clip-rule="evenodd" d="M17.9993 6C11.373 6 6 11.3935 6 18.0483C6 23.3703 9.438 27.8859 14.2072 29.4792C14.8073 29.5899 15.0262 29.2179 15.0262 28.8987C15.0262 28.6125 15.0157 27.855 15.0098 26.8498C11.6715 27.5779 10.9672 25.2347 10.9672 25.2347C10.422 23.8432 9.63525 23.4727 9.63525 23.4727C8.5455 22.725 9.71775 22.7401 9.71775 22.7401C10.9215 22.8252 11.5553 23.9818 11.5553 23.9818C12.6263 25.8228 14.364 25.2912 15.048 24.9825C15.1568 24.2039 15.4673 23.673 15.81 23.3718C13.1453 23.0676 10.344 22.0346 10.344 17.4181C10.344 16.1026 10.8113 15.0274 11.5793 14.1848C11.4555 13.8799 11.0437 12.6555 11.6962 10.9967C11.6962 10.9967 12.7043 10.673 14.9963 12.2316C15.954 11.9643 16.98 11.831 18.0007 11.8258C19.02 11.831 20.0468 11.9643 21.0053 12.2316C23.2958 10.673 24.3015 10.9967 24.3015 10.9967C24.9563 12.6555 24.5445 13.8799 24.4207 14.1848C25.1903 15.0274 25.6545 16.1026 25.6545 17.4181C25.6545 22.0459 22.8488 23.0646 20.1758 23.3628C20.6063 23.7348 20.9902 24.4697 20.9902 25.5939C20.9902 27.2045 20.9753 28.5034 20.9753 28.8987C20.9753 29.2209 21.1912 29.5959 21.8002 29.4777C26.565 27.8814 30 23.3688 30 18.0483C30 11.3935 24.627 6 17.9993 6Z" fill="white"/>
</g>
</svg>
