<svg width="319" height="29" viewBox="0 0 319 29" fill="none" xmlns="http://www.w3.org/2000/svg">
<path d="M46.1603 16.6316C46.1603 14.3721 46.5926 12.3883 47.4574 10.6805C48.3492 8.97272 49.5518 7.65896 51.0651 6.73938C52.5785 5.8198 54.2675 5.35999 56.1322 5.35999C57.7266 5.35999 59.1183 5.67528 60.3074 6.30586C61.5235 6.93644 62.4558 7.76408 63.1044 8.78878V5.67527H70.036V27.6668H63.1044V24.5533C62.4288 25.578 61.4829 26.4057 60.2668 27.0363C59.0777 27.6668 57.686 27.9821 56.0916 27.9821C54.2539 27.9821 52.5785 27.5223 51.0651 26.6027C49.5518 25.6569 48.3492 24.33 47.4574 22.6222C46.5926 20.8881 46.1603 18.8912 46.1603 16.6316ZM63.1044 16.6711C63.1044 14.9895 62.6179 13.6627 61.6451 12.6905C60.6992 11.7183 59.5372 11.2323 58.159 11.2323C56.7807 11.2323 55.6052 11.7183 54.6323 12.6905C53.6864 13.6364 53.2136 14.9501 53.2136 16.6316C53.2136 18.3132 53.6864 19.6532 54.6323 20.6516C55.6052 21.6238 56.7807 22.1098 58.159 22.1098C59.5372 22.1098 60.6992 21.6238 61.6451 20.6516C62.6179 19.6794 63.1044 18.3526 63.1044 16.6711ZM81.9827 9.34054C82.7935 8.1319 83.8069 7.18603 85.023 6.50292C86.239 5.79351 87.59 5.43881 89.0766 5.43881V12.5723H87.1714C85.4416 12.5723 84.1445 12.9401 83.2799 13.6758C82.4147 14.3852 81.9827 15.6464 81.9827 17.4593V27.6668H75.0511V5.67527H81.9827V9.34054ZM91.0115 16.6711C91.0115 14.3852 91.484 12.3883 92.4303 10.6805C93.4032 8.97272 94.7409 7.65896 96.4434 6.73938C98.1725 5.8198 100.145 5.35999 102.362 5.35999C105.199 5.35999 107.564 6.08251 109.455 7.52761C111.374 8.97272 112.631 11.0089 113.225 13.6364H105.848C105.226 11.9548 104.024 11.114 102.24 11.114C100.969 11.114 99.9561 11.6001 99.1998 12.5723C98.4429 13.5181 98.0648 14.8844 98.0648 16.6711C98.0648 18.4577 98.4429 19.8371 99.1998 20.8093C99.9561 21.7551 100.969 22.2281 102.24 22.2281C104.024 22.2281 105.226 21.3873 105.848 19.7057H113.225C112.631 22.2806 111.374 24.3038 109.455 25.7751C107.536 27.2464 105.172 27.9821 102.362 27.9821C100.145 27.9821 98.1725 27.5223 96.4434 26.6027C94.7409 25.6832 93.4032 24.3694 92.4303 22.6616C91.484 20.9538 91.0115 18.9569 91.0115 16.6711ZM127.229 27.9821C125.013 27.9821 123.014 27.5223 121.23 26.6027C119.473 25.6832 118.081 24.3694 117.055 22.6616C116.055 20.9538 115.555 18.9569 115.555 16.6711C115.555 14.4115 116.068 12.4277 117.095 10.7199C118.122 8.98583 119.527 7.65896 121.311 6.73938C123.095 5.8198 125.094 5.35999 127.31 5.35999C129.526 5.35999 131.526 5.8198 133.31 6.73938C135.093 7.65896 136.498 8.98583 137.525 10.7199C138.552 12.4277 139.066 14.4115 139.066 16.6711C139.066 18.9306 138.539 20.9275 137.485 22.6616C136.458 24.3694 135.039 25.6832 133.229 26.6027C131.445 27.5223 129.445 27.9821 127.229 27.9821ZM127.229 22.1492C128.553 22.1492 129.675 21.6763 130.594 20.7304C131.539 19.7846 132.013 18.4315 132.013 16.6711C132.013 14.9107 131.553 13.5576 130.634 12.6117C129.743 11.6658 128.634 11.1929 127.31 11.1929C125.959 11.1929 124.838 11.6658 123.946 12.6117C123.054 13.5313 122.608 14.8844 122.608 16.6711C122.608 18.4315 123.04 19.7846 123.905 20.7304C124.797 21.6763 125.905 22.1492 127.229 22.1492ZM151.945 27.9821C149.972 27.9821 148.216 27.6537 146.675 26.9968C145.135 26.34 143.919 25.4467 143.027 24.3169C142.135 23.1608 141.635 21.8734 141.527 20.4545H148.378C148.459 21.2165 148.824 21.834 149.472 22.3069C150.121 22.7798 150.918 23.0163 151.864 23.0163C152.728 23.0163 153.39 22.8586 153.85 22.5434C154.337 22.2018 154.58 21.7682 154.58 21.2428C154.58 20.6122 154.242 20.1524 153.566 19.8634C152.891 19.5481 151.796 19.2065 150.283 18.8387C148.662 18.4709 147.31 18.0899 146.229 17.6958C145.148 17.2753 144.216 16.6316 143.432 15.7646C142.648 14.8712 142.257 13.6758 142.257 12.1782C142.257 10.917 142.608 9.77406 143.311 8.74936C144.04 7.69837 145.094 6.87074 146.473 6.26645C147.877 5.66216 149.539 5.35999 151.459 5.35999C154.296 5.35999 156.526 6.0431 158.147 7.40938C159.795 8.77566 160.741 10.5886 160.984 12.8482H154.58C154.471 12.0862 154.12 11.4819 153.526 11.0352C152.958 10.5886 152.201 10.3652 151.256 10.3652C150.445 10.3652 149.823 10.5229 149.391 10.8382C148.959 11.1272 148.743 11.5345 148.743 12.0599C148.743 12.6905 149.08 13.1634 149.756 13.4787C150.458 13.794 151.54 14.1093 152.999 14.4246C154.674 14.845 156.039 15.2654 157.093 15.6858C158.147 16.0799 159.065 16.7368 159.849 17.6563C160.66 18.5497 161.079 19.7583 161.106 21.2822C161.106 22.5696 160.727 23.7257 159.971 24.7504C159.241 25.7488 158.174 26.537 156.769 27.1151C155.391 27.6931 153.782 27.9821 151.945 27.9821Z" fill="#00004D"/>
<path d="M192.472 27.6668L186.554 17.2228H184.892V27.6668H177.96V0H189.594C191.837 0 193.742 0.380997 195.31 1.14293C196.904 1.90486 198.093 2.95585 198.877 4.29584C199.66 5.60953 200.052 7.08093 200.052 8.70992C200.052 10.5491 199.512 12.1912 198.431 13.6363C197.377 15.0814 195.809 16.1061 193.729 16.7104L200.296 27.6668H192.472ZM184.892 12.454H189.189C190.459 12.454 191.405 12.1518 192.026 11.5475C192.675 10.9433 192.999 10.0893 192.999 8.9858C192.999 7.93481 192.675 7.10717 192.026 6.50288C191.405 5.89859 190.459 5.59642 189.189 5.59642H184.892V12.454ZM203.025 16.6316C203.025 14.372 203.458 12.3883 204.323 10.6805C205.214 8.97268 206.417 7.65893 207.93 6.73935C209.443 5.81977 211.133 5.35995 212.997 5.35995C214.592 5.35995 215.984 5.67524 217.173 6.30582C218.389 6.93641 219.321 7.76405 219.97 8.78874V5.67524H226.901V27.6668H219.97V24.5533C219.294 25.578 218.348 26.4056 217.132 27.0362C215.943 27.6668 214.551 27.9821 212.957 27.9821C211.119 27.9821 209.443 27.5223 207.93 26.6027C206.417 25.6568 205.214 24.3299 204.323 22.6221C203.458 20.888 203.025 18.8912 203.025 16.6316ZM219.97 16.671C219.97 14.9894 219.483 13.6626 218.51 12.6905C217.565 11.7183 216.402 11.2322 215.024 11.2322C213.646 11.2322 212.47 11.7183 211.498 12.6905C210.552 13.6363 210.079 14.95 210.079 16.6316C210.079 18.3132 210.552 19.6532 211.498 20.6516C212.47 21.6237 213.646 22.1098 215.024 22.1098C216.402 22.1098 217.565 21.6237 218.51 20.6516C219.483 19.6794 219.97 18.3526 219.97 16.671ZM260.777 5.43877C263.588 5.43877 265.818 6.26641 267.466 7.92169C269.142 9.57697 269.979 11.8759 269.979 14.8187V27.6668H263.088V15.7251C263.088 14.3063 262.697 13.2159 261.912 12.454C261.156 11.6658 260.102 11.2717 258.751 11.2717C257.4 11.2717 256.332 11.6658 255.548 12.454C254.792 13.2159 254.413 14.3063 254.413 15.7251V27.6668H247.522V15.7251C247.522 14.3063 247.131 13.2159 246.347 12.454C245.59 11.6658 244.536 11.2717 243.185 11.2717C241.834 11.2717 240.766 11.6658 239.982 12.454C239.226 13.2159 238.847 14.3063 238.847 15.7251V27.6668H231.916V5.67524H238.847V8.43404C239.55 7.51446 240.469 6.79188 241.604 6.26641C242.739 5.71465 244.023 5.43877 245.455 5.43877C247.157 5.43877 248.671 5.79347 249.995 6.50288C251.346 7.21229 252.4 8.22387 253.157 9.53756C253.941 8.32892 255.008 7.34363 256.359 6.5817C257.711 5.81977 259.183 5.43877 260.777 5.43877ZM285.123 27.9821C282.908 27.9821 280.907 27.5223 279.124 26.6027C277.367 25.6831 275.976 24.3694 274.949 22.6616C273.949 20.9537 273.449 18.9569 273.449 16.671C273.449 14.4115 273.962 12.4277 274.989 10.7199C276.016 8.9858 277.421 7.65893 279.205 6.73935C280.988 5.81977 282.989 5.35995 285.204 5.35995C287.42 5.35995 289.42 5.81977 291.204 6.73935C292.987 7.65893 294.393 8.9858 295.419 10.7199C296.447 12.4277 296.96 14.4115 296.96 16.671C296.96 18.9306 296.433 20.9275 295.379 22.6616C294.352 24.3694 292.933 25.6831 291.122 26.6027C289.339 27.5223 287.339 27.9821 285.123 27.9821ZM285.123 22.1492C286.448 22.1492 287.569 21.6763 288.488 20.7304C289.434 19.7845 289.906 18.4314 289.906 16.671C289.906 14.9106 289.447 13.5575 288.528 12.6116C287.636 11.6658 286.529 11.1928 285.204 11.1928C283.853 11.1928 282.732 11.6658 281.84 12.6116C280.948 13.5312 280.502 14.8844 280.502 16.671C280.502 18.4314 280.935 19.7845 281.799 20.7304C282.691 21.6763 283.799 22.1492 285.123 22.1492ZM309.839 27.9821C307.866 27.9821 306.109 27.6537 304.569 26.9968C303.029 26.3399 301.813 25.4466 300.921 24.3168C300.029 23.1608 299.529 21.8733 299.421 20.4545H306.272C306.353 21.2164 306.717 21.8339 307.366 22.3068C308.015 22.7798 308.812 23.0163 309.758 23.0163C310.623 23.0163 311.285 22.8586 311.744 22.5433C312.23 22.2017 312.474 21.7682 312.474 21.2427C312.474 20.6122 312.136 20.1523 311.46 19.8633C310.785 19.5481 309.691 19.2065 308.177 18.8386C306.555 18.4708 305.204 18.0898 304.123 17.6957C303.043 17.2753 302.11 16.6316 301.326 15.7646C300.543 14.8712 300.151 13.6758 300.151 12.1781C300.151 10.917 300.502 9.77403 301.205 8.74933C301.934 7.69834 302.988 6.8707 304.366 6.26641C305.772 5.66212 307.434 5.35995 309.352 5.35995C312.19 5.35995 314.419 6.04306 316.041 7.40934C317.689 8.77562 318.635 10.5885 318.878 12.8481H312.474C312.366 12.0862 312.014 11.4818 311.42 11.0352C310.852 10.5885 310.096 10.3652 309.15 10.3652C308.339 10.3652 307.718 10.5228 307.285 10.8381C306.853 11.1271 306.636 11.5344 306.636 12.0599C306.636 12.6905 306.975 13.1634 307.65 13.4787C308.353 13.794 309.433 14.1093 310.893 14.4246C312.569 14.845 313.933 15.2653 314.987 15.6857C316.041 16.0798 316.96 16.7367 317.743 17.6563C318.554 18.5497 318.973 19.7582 319 21.2822C319 22.5696 318.622 23.7257 317.865 24.7504C317.135 25.7488 316.068 26.537 314.663 27.115C313.284 27.6931 311.677 27.9821 309.839 27.9821Z" fill="#00004D"/>
<path d="M15.8335 28.4747L25.4811 0.571411H37.115L46.7626 28.4747H37.196L31.2778 9.28133L25.4 28.4747H15.8335Z" fill="url(#paint0_linear_10_527)"/>
<path d="M0 28.4747L9.6476 0.571411H21.2815L30.9291 28.4747H21.3625L15.4443 9.28133L9.56653 28.4747H0Z" fill="#00004D"/>
<defs>
<linearGradient id="paint0_linear_10_527" x1="31.2448" y1="31.3616" x2="31.2448" y2="-3.43131" gradientUnits="userSpaceOnUse">
<stop stop-color="#894DEB"/>
<stop offset="1" stop-color="#C269FE"/>
</linearGradient>
</defs>
</svg>
