<svg width="116" height="52" viewBox="0 0 116 52" fill="none" xmlns="http://www.w3.org/2000/svg">
<rect width="103" height="41" rx="20.5" fill="white"/>
<path d="M45.5039 23.207L47.3384 16.7578H48.2271L47.7129 19.2651L45.7388 26H44.8564L45.5039 23.207ZM43.606 16.7578L45.0659 23.0801L45.5039 26H44.6279L42.3872 16.7578H43.606ZM50.6011 23.0737L52.0293 16.7578H53.2544L51.02 26H50.144L50.6011 23.0737ZM48.3604 16.7578L50.144 23.207L50.7915 26H49.9092L48.0049 19.2651L47.4844 16.7578H48.3604ZM57.082 26.127C56.6038 26.127 56.1701 26.0465 55.7808 25.8857C55.3957 25.7207 55.0635 25.4901 54.7842 25.1938C54.5091 24.8976 54.2975 24.5464 54.1494 24.1401C54.0013 23.7339 53.9272 23.2896 53.9272 22.8071V22.5405C53.9272 21.9819 54.0098 21.4847 54.1748 21.0488C54.3398 20.6087 54.5641 20.2363 54.8477 19.9316C55.1312 19.627 55.4528 19.3963 55.8125 19.2397C56.1722 19.0832 56.5446 19.0049 56.9297 19.0049C57.4206 19.0049 57.8438 19.0895 58.1992 19.2588C58.5589 19.4281 58.853 19.665 59.0815 19.9697C59.3101 20.2702 59.4793 20.6257 59.5894 21.0361C59.6994 21.4424 59.7544 21.8867 59.7544 22.3691V22.896H54.6255V21.9375H58.5801V21.8486C58.5632 21.5439 58.4997 21.2477 58.3896 20.96C58.2839 20.6722 58.1146 20.4352 57.8818 20.249C57.6491 20.0628 57.3317 19.9697 56.9297 19.9697C56.6631 19.9697 56.4176 20.0269 56.1934 20.1411C55.9691 20.2511 55.7765 20.4162 55.6157 20.6362C55.4549 20.8563 55.3301 21.125 55.2412 21.4424C55.1523 21.7598 55.1079 22.1258 55.1079 22.5405V22.8071C55.1079 23.133 55.1523 23.4398 55.2412 23.7275C55.3343 24.0111 55.4676 24.2607 55.6411 24.4766C55.8188 24.6924 56.0326 24.8617 56.2822 24.9844C56.5361 25.1071 56.8239 25.1685 57.1455 25.1685C57.5602 25.1685 57.9115 25.0838 58.1992 24.9146C58.487 24.7453 58.7388 24.5189 58.9546 24.2354L59.6655 24.8003C59.5174 25.0246 59.3291 25.2383 59.1006 25.4414C58.8721 25.6445 58.5907 25.8096 58.2563 25.9365C57.9263 26.0635 57.5348 26.127 57.082 26.127ZM61.1191 16.25H62.2998V24.667L62.1982 26H61.1191V16.25ZM66.9399 22.5088V22.6421C66.9399 23.1414 66.8807 23.6048 66.7622 24.0322C66.6437 24.4554 66.4702 24.8236 66.2417 25.1367C66.0132 25.4499 65.7339 25.6932 65.4038 25.8667C65.0737 26.0402 64.695 26.127 64.2676 26.127C63.8317 26.127 63.4487 26.0529 63.1187 25.9048C62.7928 25.7524 62.5177 25.5345 62.2935 25.251C62.0692 24.9674 61.8893 24.6247 61.7539 24.2227C61.6227 23.8206 61.5317 23.3678 61.481 22.8643V22.2803C61.5317 21.7725 61.6227 21.3175 61.7539 20.9155C61.8893 20.5135 62.0692 20.1707 62.2935 19.8872C62.5177 19.5994 62.7928 19.3815 63.1187 19.2334C63.4445 19.0811 63.8232 19.0049 64.2549 19.0049C64.6865 19.0049 65.0695 19.0895 65.4038 19.2588C65.7381 19.4238 66.0174 19.6608 66.2417 19.9697C66.4702 20.2786 66.6437 20.6489 66.7622 21.0806C66.8807 21.508 66.9399 21.984 66.9399 22.5088ZM65.7593 22.6421V22.5088C65.7593 22.166 65.7275 21.8444 65.6641 21.5439C65.6006 21.2393 65.499 20.9727 65.3594 20.7441C65.2197 20.5114 65.0356 20.3294 64.8071 20.1982C64.5786 20.0628 64.2972 19.9951 63.9629 19.9951C63.6667 19.9951 63.4085 20.0459 63.1885 20.1475C62.9727 20.249 62.7886 20.3866 62.6362 20.5601C62.4839 20.7293 62.359 20.924 62.2617 21.144C62.1686 21.3599 62.0988 21.5841 62.0522 21.8169V23.3467C62.12 23.6429 62.23 23.9285 62.3823 24.2036C62.5389 24.4744 62.7463 24.6966 63.0044 24.8701C63.2668 25.0436 63.5905 25.1304 63.9756 25.1304C64.293 25.1304 64.5638 25.0669 64.7881 24.9399C65.0166 24.8088 65.2007 24.6289 65.3403 24.4004C65.4842 24.1719 65.59 23.9074 65.6577 23.6069C65.7254 23.3065 65.7593 22.9849 65.7593 22.6421Z" fill="black"/>
<g filter="url(#filter0_d_509_238)">
<rect x="93" y="28" width="19" height="19" rx="4" fill="white"/>
</g>
<path d="M103.5 34C103.5 33.7239 103.276 33.5 103 33.5C102.724 33.5 102.5 33.7239 102.5 34H103.5ZM102.646 41.3536C102.842 41.5488 103.158 41.5488 103.354 41.3536L106.536 38.1716C106.731 37.9763 106.731 37.6597 106.536 37.4645C106.34 37.2692 106.024 37.2692 105.828 37.4645L103 40.2929L100.172 37.4645C99.9763 37.2692 99.6597 37.2692 99.4645 37.4645C99.2692 37.6597 99.2692 37.9763 99.4645 38.1716L102.646 41.3536ZM102.5 34V41H103.5V34H102.5Z" fill="#828282"/>
<path d="M100 43H106" stroke="#828282" stroke-linecap="round"/>
<path d="M13 10C13 8.34315 14.3431 7 16 7H26L30 11L34 15.0992V31C34 32.6569 32.6569 34 31 34H16C14.3431 34 13 32.6569 13 31V10Z" fill="#9B0BB3"/>
<path d="M26 7L30 11L34 15H26V7Z" fill="#DA37F4"/>
<rect x="8" y="25" width="17" height="7" rx="2" fill="#680478"/>
<path d="M10.3076 29.6606C10.3076 29.5565 10.3434 29.4694 10.415 29.3994C10.4883 29.3294 10.5851 29.2944 10.7056 29.2944C10.826 29.2944 10.922 29.3294 10.9937 29.3994C11.0669 29.4694 11.1035 29.5565 11.1035 29.6606C11.1035 29.7648 11.0669 29.8519 10.9937 29.9219C10.922 29.9919 10.826 30.0269 10.7056 30.0269C10.5851 30.0269 10.4883 29.9919 10.415 29.9219C10.3434 29.8519 10.3076 29.7648 10.3076 29.6606ZM12.4097 26.25V30H11.7065V26.25H12.4097ZM12.3096 28.5864H12.1167C12.1183 28.4025 12.1427 28.2332 12.1899 28.0786C12.2371 27.9224 12.3047 27.7873 12.3926 27.6733C12.4805 27.5578 12.5854 27.4683 12.7075 27.4048C12.8312 27.3413 12.9679 27.3096 13.1177 27.3096C13.2479 27.3096 13.3659 27.3283 13.4717 27.3657C13.5791 27.4015 13.6711 27.4601 13.7476 27.5415C13.8257 27.6213 13.8859 27.7262 13.9282 27.8564C13.9705 27.9867 13.9917 28.1445 13.9917 28.3301V30H13.2837V28.3252C13.2837 28.208 13.2666 28.116 13.2324 28.0493C13.1999 27.981 13.1519 27.9329 13.0884 27.9053C13.0265 27.876 12.95 27.8613 12.8589 27.8613C12.758 27.8613 12.6717 27.88 12.6001 27.9175C12.5301 27.9549 12.474 28.007 12.4316 28.0737C12.3893 28.1388 12.3584 28.2153 12.3389 28.3032C12.3193 28.3911 12.3096 28.4855 12.3096 28.5864ZM15.8203 27.3584V27.8564H14.2822V27.3584H15.8203ZM14.6631 26.7065H15.3662V29.2041C15.3662 29.2806 15.376 29.3392 15.3955 29.3799C15.4167 29.4206 15.4476 29.4491 15.4883 29.4653C15.529 29.48 15.5802 29.4873 15.6421 29.4873C15.686 29.4873 15.7251 29.4857 15.7593 29.4824C15.7951 29.4775 15.8252 29.4727 15.8496 29.4678L15.8521 29.9854C15.7918 30.0049 15.7267 30.0203 15.6567 30.0317C15.5868 30.0431 15.5094 30.0488 15.4248 30.0488C15.2702 30.0488 15.1351 30.0236 15.0195 29.9731C14.9056 29.9211 14.8177 29.8381 14.7559 29.7241C14.694 29.6102 14.6631 29.4604 14.6631 29.2749V26.7065ZM16.9238 27.9053V30H16.2183V27.3584H16.8799L16.9238 27.9053ZM16.8262 28.5864H16.6309C16.6309 28.4025 16.6528 28.2332 16.6968 28.0786C16.7424 27.9224 16.8083 27.7873 16.8945 27.6733C16.9824 27.5578 17.0907 27.4683 17.2192 27.4048C17.3478 27.3413 17.4967 27.3096 17.666 27.3096C17.7832 27.3096 17.8906 27.3275 17.9883 27.3633C18.0859 27.3975 18.1698 27.452 18.2397 27.5269C18.3114 27.6001 18.3667 27.6961 18.4058 27.8149C18.4448 27.9321 18.4644 28.0729 18.4644 28.2373V30H17.7612V28.3154C17.7612 28.195 17.745 28.1022 17.7124 28.0371C17.6799 27.972 17.6335 27.9264 17.5732 27.9004C17.5146 27.8743 17.4438 27.8613 17.3608 27.8613C17.2697 27.8613 17.1899 27.88 17.1216 27.9175C17.0549 27.9549 16.9995 28.007 16.9556 28.0737C16.9116 28.1388 16.8791 28.2153 16.8579 28.3032C16.8368 28.3911 16.8262 28.4855 16.8262 28.5864ZM18.3984 28.5059L18.147 28.5376C18.147 28.3651 18.1681 28.2048 18.2104 28.0566C18.2544 27.9085 18.3187 27.7783 18.4033 27.666C18.4896 27.5537 18.5962 27.4666 18.7231 27.4048C18.8501 27.3413 18.9966 27.3096 19.1626 27.3096C19.2896 27.3096 19.4051 27.3283 19.5093 27.3657C19.6134 27.4015 19.7021 27.4593 19.7754 27.5391C19.8503 27.6172 19.9072 27.7197 19.9463 27.8467C19.987 27.9736 20.0073 28.1291 20.0073 28.313V30H19.3018V28.313C19.3018 28.1909 19.2855 28.0981 19.2529 28.0347C19.222 27.9696 19.1764 27.9248 19.1162 27.9004C19.0576 27.8743 18.9876 27.8613 18.9062 27.8613C18.8216 27.8613 18.7476 27.8784 18.6841 27.9126C18.6206 27.9451 18.5677 27.9907 18.5254 28.0493C18.4831 28.1079 18.4513 28.1763 18.4302 28.2544C18.409 28.3309 18.3984 28.4147 18.3984 28.5059ZM21.2939 26.25V30H20.5884V26.25H21.2939Z" fill="white"/>
<defs>
<filter id="filter0_d_509_238" x="89" y="25" width="27" height="27" filterUnits="userSpaceOnUse" color-interpolation-filters="sRGB">
<feFlood flood-opacity="0" result="BackgroundImageFix"/>
<feColorMatrix in="SourceAlpha" type="matrix" values="0 0 0 0 0 0 0 0 0 0 0 0 0 0 0 0 0 0 127 0" result="hardAlpha"/>
<feOffset dy="1"/>
<feGaussianBlur stdDeviation="2"/>
<feComposite in2="hardAlpha" operator="out"/>
<feColorMatrix type="matrix" values="0 0 0 0 0 0 0 0 0 0 0 0 0 0 0 0 0 0 0.25 0"/>
<feBlend mode="normal" in2="BackgroundImageFix" result="effect1_dropShadow_509_238"/>
<feBlend mode="normal" in="SourceGraphic" in2="effect1_dropShadow_509_238" result="shape"/>
</filter>
</defs>
</svg>
