<svg width="116" height="52" viewBox="0 0 116 52" fill="none" xmlns="http://www.w3.org/2000/svg">
<rect width="103" height="41" rx="20.5" fill="white"/>
<path d="M45.5039 23.207L47.3384 16.7578H48.2271L47.7129 19.2651L45.7388 26H44.8564L45.5039 23.207ZM43.606 16.7578L45.0659 23.0801L45.5039 26H44.6279L42.3872 16.7578H43.606ZM50.6011 23.0737L52.0293 16.7578H53.2544L51.02 26H50.144L50.6011 23.0737ZM48.3604 16.7578L50.144 23.207L50.7915 26H49.9092L48.0049 19.2651L47.4844 16.7578H48.3604ZM55.7109 19.1318V26H54.5303V19.1318H55.7109ZM54.4414 17.3101C54.4414 17.1196 54.4985 16.9588 54.6128 16.8276C54.7313 16.6965 54.9048 16.6309 55.1333 16.6309C55.3576 16.6309 55.529 16.6965 55.6475 16.8276C55.7702 16.9588 55.8315 17.1196 55.8315 17.3101C55.8315 17.492 55.7702 17.6486 55.6475 17.7798C55.529 17.9067 55.3576 17.9702 55.1333 17.9702C54.9048 17.9702 54.7313 17.9067 54.6128 17.7798C54.4985 17.6486 54.4414 17.492 54.4414 17.3101ZM58.7705 20.5981V26H57.5962V19.1318H58.707L58.7705 20.5981ZM58.4912 22.3057L58.0024 22.2866C58.0067 21.8169 58.0765 21.3831 58.2119 20.9854C58.3473 20.5833 58.5378 20.2342 58.7832 19.938C59.0286 19.6418 59.3206 19.4132 59.6592 19.2524C60.002 19.0874 60.3807 19.0049 60.7954 19.0049C61.134 19.0049 61.4386 19.0514 61.7095 19.1445C61.9803 19.2334 62.2109 19.3773 62.4014 19.5762C62.596 19.7751 62.7441 20.0332 62.8457 20.3506C62.9473 20.6637 62.998 21.0467 62.998 21.4995V26H61.8174V21.4868C61.8174 21.1271 61.7645 20.8394 61.6587 20.6235C61.5529 20.4035 61.3984 20.2448 61.1953 20.1475C60.9922 20.0459 60.7425 19.9951 60.4463 19.9951C60.1543 19.9951 59.8877 20.0565 59.6465 20.1792C59.4095 20.3019 59.2043 20.4712 59.0308 20.687C58.8615 20.9028 58.7282 21.1504 58.6309 21.4297C58.5378 21.7048 58.4912 21.9967 58.4912 22.3057ZM69.1108 24.667V16.25H70.2915V26H69.2124L69.1108 24.667ZM64.4897 22.6421V22.5088C64.4897 21.984 64.5532 21.508 64.6802 21.0806C64.8114 20.6489 64.9954 20.2786 65.2324 19.9697C65.4736 19.6608 65.7593 19.4238 66.0894 19.2588C66.4237 19.0895 66.7961 19.0049 67.2065 19.0049C67.6382 19.0049 68.0148 19.0811 68.3364 19.2334C68.6623 19.3815 68.9373 19.5994 69.1616 19.8872C69.3901 20.1707 69.57 20.5135 69.7012 20.9155C69.8324 21.3175 69.9233 21.7725 69.9741 22.2803V22.8643C69.9276 23.3678 69.8366 23.8206 69.7012 24.2227C69.57 24.6247 69.3901 24.9674 69.1616 25.251C68.9373 25.5345 68.6623 25.7524 68.3364 25.9048C68.0106 26.0529 67.6297 26.127 67.1938 26.127C66.7918 26.127 66.4237 26.0402 66.0894 25.8667C65.7593 25.6932 65.4736 25.4499 65.2324 25.1367C64.9954 24.8236 64.8114 24.4554 64.6802 24.0322C64.5532 23.6048 64.4897 23.1414 64.4897 22.6421ZM65.6704 22.5088V22.6421C65.6704 22.9849 65.7043 23.3065 65.772 23.6069C65.8439 23.9074 65.9539 24.1719 66.1021 24.4004C66.2502 24.6289 66.4385 24.8088 66.667 24.9399C66.8955 25.0669 67.1685 25.1304 67.4858 25.1304C67.8752 25.1304 68.1947 25.0479 68.4443 24.8828C68.6982 24.7178 68.9014 24.4998 69.0537 24.229C69.2061 23.9582 69.3245 23.6641 69.4092 23.3467V21.8169C69.3584 21.5841 69.2843 21.3599 69.187 21.144C69.0939 20.924 68.9712 20.7293 68.8188 20.5601C68.6707 20.3866 68.4867 20.249 68.2666 20.1475C68.0508 20.0459 67.7948 19.9951 67.4985 19.9951C67.1769 19.9951 66.8997 20.0628 66.667 20.1982C66.4385 20.3294 66.2502 20.5114 66.1021 20.7441C65.9539 20.9727 65.8439 21.2393 65.772 21.5439C65.7043 21.8444 65.6704 22.166 65.6704 22.5088ZM71.8086 22.6421V22.4961C71.8086 22.001 71.8805 21.5418 72.0244 21.1187C72.1683 20.6912 72.3757 20.321 72.6465 20.0078C72.9173 19.6904 73.2453 19.445 73.6304 19.2715C74.0155 19.0938 74.4471 19.0049 74.9253 19.0049C75.4077 19.0049 75.8415 19.0938 76.2266 19.2715C76.6159 19.445 76.946 19.6904 77.2168 20.0078C77.4919 20.321 77.7013 20.6912 77.8452 21.1187C77.9891 21.5418 78.061 22.001 78.061 22.4961V22.6421C78.061 23.1372 77.9891 23.5964 77.8452 24.0195C77.7013 24.4427 77.4919 24.813 77.2168 25.1304C76.946 25.4435 76.618 25.689 76.2329 25.8667C75.8521 26.0402 75.4204 26.127 74.938 26.127C74.4556 26.127 74.0218 26.0402 73.6367 25.8667C73.2516 25.689 72.9215 25.4435 72.6465 25.1304C72.3757 24.813 72.1683 24.4427 72.0244 24.0195C71.8805 23.5964 71.8086 23.1372 71.8086 22.6421ZM72.9829 22.4961V22.6421C72.9829 22.9849 73.0231 23.3086 73.1035 23.6133C73.1839 23.9137 73.3045 24.1803 73.4653 24.4131C73.6304 24.6458 73.8356 24.8299 74.0811 24.9653C74.3265 25.0965 74.6121 25.1621 74.938 25.1621C75.2596 25.1621 75.541 25.0965 75.7822 24.9653C76.0277 24.8299 76.2308 24.6458 76.3916 24.4131C76.5524 24.1803 76.673 23.9137 76.7534 23.6133C76.8381 23.3086 76.8804 22.9849 76.8804 22.6421V22.4961C76.8804 22.1576 76.8381 21.8381 76.7534 21.5376C76.673 21.2329 76.5503 20.9642 76.3853 20.7314C76.2244 20.4945 76.0213 20.3083 75.7759 20.1729C75.5347 20.0374 75.2511 19.9697 74.9253 19.9697C74.6037 19.9697 74.3201 20.0374 74.0747 20.1729C73.8335 20.3083 73.6304 20.4945 73.4653 20.7314C73.3045 20.9642 73.1839 21.2329 73.1035 21.5376C73.0231 21.8381 72.9829 22.1576 72.9829 22.4961ZM81.2729 24.7812L83.0376 19.1318H83.812L83.6597 20.2554L81.8633 26H81.1079L81.2729 24.7812ZM80.0859 19.1318L81.5903 24.8447L81.6982 26H80.9048L78.9116 19.1318H80.0859ZM85.5005 24.8003L86.9351 19.1318H88.103L86.1099 26H85.3228L85.5005 24.8003ZM83.9834 19.1318L85.71 24.686L85.9067 26H85.1577L83.3105 20.2427L83.1582 19.1318H83.9834ZM93.3081 24.1782C93.3081 24.009 93.27 23.8524 93.1938 23.7085C93.1219 23.5604 92.9717 23.4271 92.7432 23.3086C92.5189 23.1859 92.1803 23.0801 91.7275 22.9912C91.3467 22.9108 91.0018 22.8156 90.6929 22.7056C90.3882 22.5955 90.1279 22.4622 89.9121 22.3057C89.7005 22.1491 89.5376 21.965 89.4233 21.7534C89.3091 21.5418 89.252 21.2943 89.252 21.0107C89.252 20.7399 89.3112 20.4839 89.4297 20.2427C89.5524 20.0015 89.7238 19.7878 89.9438 19.6016C90.1681 19.4154 90.4368 19.2694 90.75 19.1636C91.0632 19.0578 91.4123 19.0049 91.7974 19.0049C92.3475 19.0049 92.8172 19.1022 93.2065 19.2969C93.5959 19.4915 93.8942 19.7518 94.1016 20.0776C94.3089 20.3993 94.4126 20.7568 94.4126 21.1504H93.2383C93.2383 20.96 93.1812 20.7759 93.0669 20.5981C92.9569 20.4162 92.7939 20.266 92.5781 20.1475C92.3665 20.029 92.1063 19.9697 91.7974 19.9697C91.4715 19.9697 91.207 20.0205 91.0039 20.1221C90.805 20.2194 90.659 20.3442 90.5659 20.4966C90.4771 20.6489 90.4326 20.8097 90.4326 20.979C90.4326 21.106 90.4538 21.2202 90.4961 21.3218C90.5426 21.4191 90.623 21.5101 90.7373 21.5947C90.8516 21.6751 91.0124 21.7513 91.2197 21.8232C91.4271 21.8952 91.6916 21.9671 92.0132 22.0391C92.576 22.166 93.0394 22.3184 93.4033 22.4961C93.7673 22.6738 94.0381 22.8918 94.2158 23.1499C94.3936 23.408 94.4824 23.7212 94.4824 24.0894C94.4824 24.3898 94.4189 24.6649 94.292 24.9146C94.1693 25.1642 93.9894 25.38 93.7524 25.562C93.5197 25.7397 93.2404 25.8794 92.9146 25.981C92.5929 26.0783 92.2311 26.127 91.8291 26.127C91.224 26.127 90.7119 26.019 90.293 25.8032C89.874 25.5874 89.5566 25.3081 89.3408 24.9653C89.125 24.6226 89.0171 24.2607 89.0171 23.8799H90.1978C90.2147 24.2015 90.3078 24.4575 90.4771 24.6479C90.6463 24.8341 90.8537 24.9674 91.0991 25.0479C91.3446 25.124 91.5879 25.1621 91.8291 25.1621C92.1507 25.1621 92.4194 25.1198 92.6353 25.0352C92.8553 24.9505 93.0225 24.8341 93.1367 24.686C93.251 24.5379 93.3081 24.3687 93.3081 24.1782Z" fill="black"/>
<g filter="url(#filter0_d_509_256)">
<rect x="93" y="28" width="19" height="19" rx="4" fill="white"/>
</g>
<path d="M103.5 34C103.5 33.7239 103.276 33.5 103 33.5C102.724 33.5 102.5 33.7239 102.5 34H103.5ZM102.646 41.3536C102.842 41.5488 103.158 41.5488 103.354 41.3536L106.536 38.1716C106.731 37.9763 106.731 37.6597 106.536 37.4645C106.34 37.2692 106.024 37.2692 105.828 37.4645L103 40.2929L100.172 37.4645C99.9763 37.2692 99.6597 37.2692 99.4645 37.4645C99.2692 37.6597 99.2692 37.9763 99.4645 38.1716L102.646 41.3536ZM102.5 34V41H103.5V34H102.5Z" fill="#828282"/>
<path d="M100 43H106" stroke="#828282" stroke-linecap="round"/>
<path d="M13 10C13 8.34315 14.3431 7 16 7H26L30 11L34 15.0992V31C34 32.6569 32.6569 34 31 34H16C14.3431 34 13 32.6569 13 31V10Z" fill="#0130D8"/>
<path d="M26 7L30 11L34 15H26V7Z" fill="#4C70EF"/>
<rect x="8" y="25" width="17" height="7" rx="2" fill="#0C288E"/>
<path d="M11.3076 29.6606C11.3076 29.5565 11.3434 29.4694 11.415 29.3994C11.4883 29.3294 11.5851 29.2944 11.7056 29.2944C11.826 29.2944 11.922 29.3294 11.9937 29.3994C12.0669 29.4694 12.1035 29.5565 12.1035 29.6606C12.1035 29.7648 12.0669 29.8519 11.9937 29.9219C11.922 29.9919 11.826 30.0269 11.7056 30.0269C11.5851 30.0269 11.4883 29.9919 11.415 29.9219C11.3434 29.8519 11.3076 29.7648 11.3076 29.6606ZM13.9395 30.0488C13.7344 30.0488 13.5505 30.0163 13.3877 29.9512C13.2249 29.8844 13.0866 29.7925 12.9727 29.6753C12.8604 29.5581 12.7741 29.4222 12.7139 29.2676C12.6536 29.1113 12.6235 28.9453 12.6235 28.7695V28.6719C12.6235 28.4717 12.652 28.2886 12.709 28.1226C12.766 27.9565 12.8473 27.8125 12.9531 27.6904C13.0605 27.5684 13.1908 27.4748 13.3438 27.4097C13.4967 27.3429 13.6693 27.3096 13.8613 27.3096C14.0485 27.3096 14.2145 27.3405 14.3594 27.4023C14.5042 27.4642 14.6255 27.5521 14.7231 27.666C14.8224 27.7799 14.8973 27.9167 14.9478 28.0762C14.9982 28.234 15.0234 28.4098 15.0234 28.6035V28.8965H12.9238V28.4277H14.3325V28.374C14.3325 28.2764 14.3146 28.1893 14.2788 28.1128C14.2446 28.0347 14.1925 27.9728 14.1226 27.9272C14.0526 27.8817 13.9631 27.8589 13.854 27.8589C13.7612 27.8589 13.6815 27.8792 13.6147 27.9199C13.548 27.9606 13.4935 28.0176 13.4512 28.0908C13.4105 28.1641 13.3796 28.2503 13.3584 28.3496C13.3389 28.4473 13.3291 28.5547 13.3291 28.6719V28.7695C13.3291 28.8753 13.3438 28.973 13.373 29.0625C13.404 29.152 13.4471 29.2293 13.5024 29.2944C13.5594 29.3595 13.6278 29.41 13.7075 29.4458C13.7889 29.4816 13.8809 29.4995 13.9834 29.4995C14.1104 29.4995 14.2284 29.4751 14.3374 29.4263C14.4481 29.3758 14.5433 29.3001 14.623 29.1992L14.9648 29.5703C14.9095 29.6501 14.8338 29.7266 14.7378 29.7998C14.6434 29.873 14.5295 29.9333 14.396 29.9805C14.2625 30.026 14.1104 30.0488 13.9395 30.0488ZM15.9902 27.3584L16.4272 28.1616L16.8765 27.3584H17.626L16.8789 28.6499L17.6602 30H16.9082L16.4321 29.1504L15.9561 30H15.2041L15.9854 28.6499L15.2383 27.3584H15.9902ZM19.1348 30.0488C18.9297 30.0488 18.7458 30.0163 18.583 29.9512C18.4202 29.8844 18.2819 29.7925 18.168 29.6753C18.0557 29.5581 17.9694 29.4222 17.9092 29.2676C17.849 29.1113 17.8188 28.9453 17.8188 28.7695V28.6719C17.8188 28.4717 17.8473 28.2886 17.9043 28.1226C17.9613 27.9565 18.0426 27.8125 18.1484 27.6904C18.2559 27.5684 18.3861 27.4748 18.5391 27.4097C18.6921 27.3429 18.8646 27.3096 19.0566 27.3096C19.2438 27.3096 19.4098 27.3405 19.5547 27.4023C19.6995 27.4642 19.8208 27.5521 19.9185 27.666C20.0177 27.7799 20.0926 27.9167 20.1431 28.0762C20.1935 28.234 20.2188 28.4098 20.2188 28.6035V28.8965H18.1191V28.4277H19.5278V28.374C19.5278 28.2764 19.5099 28.1893 19.4741 28.1128C19.4399 28.0347 19.3879 27.9728 19.3179 27.9272C19.2479 27.8817 19.1584 27.8589 19.0493 27.8589C18.9565 27.8589 18.8768 27.8792 18.8101 27.9199C18.7433 27.9606 18.6888 28.0176 18.6465 28.0908C18.6058 28.1641 18.5749 28.2503 18.5537 28.3496C18.5342 28.4473 18.5244 28.5547 18.5244 28.6719V28.7695C18.5244 28.8753 18.5391 28.973 18.5684 29.0625C18.5993 29.152 18.6424 29.2293 18.6978 29.2944C18.7547 29.3595 18.8231 29.41 18.9028 29.4458C18.9842 29.4816 19.0762 29.4995 19.1787 29.4995C19.3057 29.4995 19.4237 29.4751 19.5327 29.4263C19.6434 29.3758 19.7386 29.3001 19.8184 29.1992L20.1602 29.5703C20.1048 29.6501 20.0291 29.7266 19.9331 29.7998C19.8387 29.873 19.7248 29.9333 19.5913 29.9805C19.4578 30.026 19.3057 30.0488 19.1348 30.0488Z" fill="white"/>
<defs>
<filter id="filter0_d_509_256" x="89" y="25" width="27" height="27" filterUnits="userSpaceOnUse" color-interpolation-filters="sRGB">
<feFlood flood-opacity="0" result="BackgroundImageFix"/>
<feColorMatrix in="SourceAlpha" type="matrix" values="0 0 0 0 0 0 0 0 0 0 0 0 0 0 0 0 0 0 127 0" result="hardAlpha"/>
<feOffset dy="1"/>
<feGaussianBlur stdDeviation="2"/>
<feComposite in2="hardAlpha" operator="out"/>
<feColorMatrix type="matrix" values="0 0 0 0 0 0 0 0 0 0 0 0 0 0 0 0 0 0 0.25 0"/>
<feBlend mode="normal" in2="BackgroundImageFix" result="effect1_dropShadow_509_256"/>
<feBlend mode="normal" in="SourceGraphic" in2="effect1_dropShadow_509_256" result="shape"/>
</filter>
</defs>
</svg>
